<svg width="182" height="159" viewBox="0 0 182 159" fill="none" xmlns="http://www.w3.org/2000/svg">
<path d="M145.5 157.5H32.5L62 130H117.5L145.5 157.5Z" fill="#FFCA43" stroke="black" stroke-width="3"/>
<path d="M78.5 129.5V73.5H100.5V129.5H78.5Z" fill="black" stroke="black" stroke-width="3"/>
<path d="M8 73V37H63.0036H146V73H8Z" fill="#FFCA43" stroke="black" stroke-width="3"/>
<path d="M3 2L19 36H45.5L57 2H3Z" fill="#D9D9D9" stroke="black" stroke-width="3"/>
<path d="M180.5 25.5L146.5 41.5L146.5 68L180.5 79.5L180.5 25.5Z" fill="#D9D9D9" stroke="black" stroke-width="3"/>
<mask id="path-6-inside-1_1111_1120" fill="white">
<path d="M71 29.0997L75.1887 19.4174L81.6133 22.1968L77.4246 31.8791L71 29.0997Z"/>
</mask>
<path d="M71 29.0997L75.1887 19.4174L81.6133 22.1968L77.4246 31.8791L71 29.0997Z" fill="#D9D9D9"/>
<path d="M71 29.0997L69.1644 28.3056L68.3703 30.1412L70.2059 30.9353L71 29.0997ZM75.1887 19.4174L75.9828 17.5818L74.1472 16.7877L73.3531 18.6233L75.1887 19.4174ZM72.8356 29.8938L77.0243 20.2115L73.3531 18.6233L69.1644 28.3056L72.8356 29.8938ZM74.3946 21.253L80.8192 24.0324L82.4074 20.3612L75.9828 17.5818L74.3946 21.253ZM78.2187 30.0435L71.7941 27.2641L70.2059 30.9353L76.6305 33.7147L78.2187 30.0435Z" fill="black" mask="url(#path-6-inside-1_1111_1120)"/>
<mask id="path-8-inside-2_1111_1120" fill="white">
<path d="M80.4802 14.3737L89.0573 8.23156L93.1328 13.9228L84.5557 20.0649L80.4802 14.3737Z"/>
</mask>
<path d="M80.4802 14.3737L89.0573 8.23156L93.1328 13.9228L84.5557 20.0649L80.4802 14.3737Z" fill="#D9D9D9"/>
<path d="M80.4802 14.3737L79.3158 12.7476L77.6897 13.912L78.8542 15.5381L80.4802 14.3737ZM89.0573 8.23156L90.6834 7.06713L89.519 5.44106L87.8929 6.60549L89.0573 8.23156ZM81.6447 15.9997L90.2218 9.85763L87.8929 6.60549L79.3158 12.7476L81.6447 15.9997ZM87.4313 9.39599L91.5068 15.0872L94.7589 12.7584L90.6834 7.06713L87.4313 9.39599ZM86.1818 18.9005L82.1063 13.2092L78.8542 15.5381L82.9297 21.2293L86.1818 18.9005Z" fill="black" mask="url(#path-8-inside-2_1111_1120)"/>
<mask id="path-10-inside-3_1111_1120" fill="white">
<path d="M116.007 8.3302L124.25 14.9141L119.881 20.3835L111.638 13.7997L116.007 8.3302Z"/>
</mask>
<path d="M116.007 8.3302L124.25 14.9141L119.881 20.3835L111.638 13.7997L116.007 8.3302Z" fill="#D9D9D9"/>
<path d="M116.007 8.3302L117.255 6.7675L115.692 5.51931L114.444 7.08202L116.007 8.3302ZM124.25 14.9141L125.812 16.1622L127.061 14.5995L125.498 13.3514L124.25 14.9141ZM114.759 9.8929L123.002 16.4768L125.498 13.3514L117.255 6.7675L114.759 9.8929ZM122.687 13.6659L118.318 19.1353L121.444 21.6317L125.812 16.1622L122.687 13.6659ZM113.201 15.0478L117.57 9.57838L114.444 7.08202L110.075 12.5515L113.201 15.0478Z" fill="black" mask="url(#path-10-inside-3_1111_1120)"/>
<mask id="path-12-inside-4_1111_1120" fill="white">
<path d="M128.294 20.392L132.424 30.0997L125.982 32.8397L121.853 23.132L128.294 20.392Z"/>
</mask>
<path d="M128.294 20.392L132.424 30.0997L125.982 32.8397L121.853 23.132L128.294 20.392Z" fill="#D9D9D9"/>
<path d="M128.294 20.392L130.135 19.6091L129.352 17.7687L127.511 18.5516L128.294 20.392ZM132.424 30.0997L133.206 31.9401L135.047 31.1573L134.264 29.3168L132.424 30.0997ZM126.454 21.1748L130.583 30.8826L134.264 29.3168L130.135 19.6091L126.454 21.1748ZM131.641 28.2593L125.199 30.9993L126.765 34.6801L133.206 31.9401L131.641 28.2593ZM122.636 24.9724L129.077 22.2324L127.511 18.5516L121.07 21.2916L122.636 24.9724Z" fill="black" mask="url(#path-12-inside-4_1111_1120)"/>
<mask id="path-14-inside-5_1111_1120" fill="white">
<path d="M97.2493 6H107.799V13H97.2493V6Z"/>
</mask>
<path d="M97.2493 6H107.799V13H97.2493V6Z" fill="#D9D9D9"/>
<path d="M97.2493 6V4H95.2493V6H97.2493ZM107.799 6H109.799V4H107.799V6ZM97.2493 8H107.799V4H97.2493V8ZM105.799 6V13H109.799V6H105.799ZM99.2493 13V6H95.2493V13H99.2493Z" fill="black" mask="url(#path-14-inside-5_1111_1120)"/>
<mask id="path-16-inside-6_1111_1120" fill="white">
<path d="M76.1382 37.3302C76.1382 33.9815 76.7978 30.6656 78.0793 27.5718C79.3608 24.478 81.2391 21.6669 83.607 19.299C85.9749 16.9311 88.786 15.0528 91.8798 13.7713C94.9736 12.4898 98.2895 11.8302 101.638 11.8302C104.987 11.8302 108.303 12.4898 111.397 13.7713C114.49 15.0528 117.302 16.9311 119.669 19.299C122.037 21.6669 123.916 24.478 125.197 27.5718C126.479 30.6656 127.138 33.9815 127.138 37.3302L101.638 37.3302L76.1382 37.3302Z"/>
</mask>
<path d="M76.1382 37.3302C76.1382 33.9815 76.7978 30.6656 78.0793 27.5718C79.3608 24.478 81.2391 21.6669 83.607 19.299C85.9749 16.9311 88.786 15.0528 91.8798 13.7713C94.9736 12.4898 98.2895 11.8302 101.638 11.8302C104.987 11.8302 108.303 12.4898 111.397 13.7713C114.49 15.0528 117.302 16.9311 119.669 19.299C122.037 21.6669 123.916 24.478 125.197 27.5718C126.479 30.6656 127.138 33.9815 127.138 37.3302L101.638 37.3302L76.1382 37.3302Z" fill="#D9D9D9" stroke="black" stroke-width="6" mask="url(#path-16-inside-6_1111_1120)"/>
<rect x="49.5" y="44.5" width="61" height="21" fill="white" stroke="black" stroke-width="2"/>
<rect x="20" y="8" width="22" height="18" fill="white" stroke="black" stroke-width="2"/>
<path d="M21 74.5V92C20.8333 95.1667 21.8 101.5 27 101.5C32.2 101.5 33.1667 95.1667 33 92V74.5M43 74.5V85.5C43.3333 87.6667 45.2 92 50 92C54.8 92 55.3333 87.6667 55 85.5V74.5" stroke="#0D7F9C" stroke-width="3"/>
</svg>
