<svg width="182" height="159" viewBox="0 0 182 159" fill="none" xmlns="http://www.w3.org/2000/svg">
<path d="M145.5 157.5H32.5L62 130H117.5L145.5 157.5Z" fill="#FFCA43"/>
<path fill-rule="evenodd" clip-rule="evenodd" d="M61.4093 128.5H118.113L149.168 159H28.6912L61.4093 128.5ZM62.5908 131.5L36.309 156H141.832L116.887 131.5H62.5908Z" fill="black"/>
<path d="M78.5 129.5V73.5H100.5V129.5H78.5Z" fill="black"/>
<path fill-rule="evenodd" clip-rule="evenodd" d="M77 72H102V131H77V72ZM80 75V128H99V75H80Z" fill="black"/>
<path d="M8 73V37H63.0036H146V73H8Z" fill="#FFCA43"/>
<path fill-rule="evenodd" clip-rule="evenodd" d="M6.5 35.5H147.5V74.5H6.5V35.5ZM9.5 38.5V71.5H144.5V38.5H9.5Z" fill="black"/>
<path d="M3 2L19 36H45.5L57 2H3Z" fill="#D9D9D9"/>
<path fill-rule="evenodd" clip-rule="evenodd" d="M0.636353 0.5H59.0909L46.5762 37.5H18.0481L0.636353 0.5ZM5.3637 3.5L19.9519 34.5H44.4239L54.9092 3.5H5.3637Z" fill="black"/>
<path d="M180.5 25.5L146.5 41.5L146.5 68L180.5 79.5L180.5 25.5Z" fill="#D9D9D9"/>
<path fill-rule="evenodd" clip-rule="evenodd" d="M182 23.1364L182 81.5909L145 69.0762L145 40.5481L182 23.1364ZM179 27.8637L148 42.4519L148 66.9239L179 77.4092L179 27.8637Z" fill="black"/>
<path d="M71 29.0997L75.1887 19.4174L81.6133 22.1968L77.4246 31.8791L71 29.0997Z" fill="#D9D9D9"/>
<path fill-rule="evenodd" clip-rule="evenodd" d="M81.6133 22.1968L75.1887 19.4174L71 29.0997L77.4246 31.8791L78.2187 30.0435L73.6297 28.0582L76.2302 22.0471L80.8192 24.0324L81.6133 22.1968Z" fill="black"/>
<path d="M80.4802 14.3737L89.0573 8.23156L93.1328 13.9228L84.5557 20.0649L80.4802 14.3737Z" fill="#D9D9D9"/>
<path fill-rule="evenodd" clip-rule="evenodd" d="M93.1328 13.9228L89.0573 8.23156L80.4802 14.3737L84.5557 20.0649L86.1818 18.9005L83.2707 14.8353L88.5957 11.0221L91.5068 15.0872L93.1328 13.9228Z" fill="black"/>
<path d="M116.007 8.3302L124.25 14.9141L119.881 20.3835L111.638 13.7997L116.007 8.3302Z" fill="#D9D9D9"/>
<path fill-rule="evenodd" clip-rule="evenodd" d="M119.881 20.3835L124.25 14.9141L116.007 8.3302L111.638 13.7997L113.201 15.0478L116.321 11.1411L121.439 15.2286L118.318 19.1353L119.881 20.3835Z" fill="black"/>
<path d="M128.294 20.392L132.424 30.0997L125.982 32.8397L121.853 23.132L128.294 20.392Z" fill="#D9D9D9"/>
<path fill-rule="evenodd" clip-rule="evenodd" d="M125.982 32.8397L132.424 30.0997L128.294 20.392L121.853 23.132L122.636 24.9724L127.237 23.0152L129.8 29.0422L125.199 30.9993L125.982 32.8397Z" fill="black"/>
<path d="M97.2493 6H107.799V13H97.2493V6Z" fill="#D9D9D9"/>
<path fill-rule="evenodd" clip-rule="evenodd" d="M107.799 13V6H97.2493V13H99.2493V8H105.799V13H107.799Z" fill="black"/>
<path d="M76.1382 37.3302C76.1382 33.9815 76.7978 30.6656 78.0793 27.5718C79.3608 24.478 81.2391 21.6669 83.607 19.299C85.9749 16.9311 88.786 15.0528 91.8798 13.7713C94.9736 12.4898 98.2895 11.8302 101.638 11.8302C104.987 11.8302 108.303 12.4898 111.397 13.7713C114.49 15.0528 117.302 16.9311 119.669 19.299C122.037 21.6669 123.916 24.478 125.197 27.5718C126.479 30.6656 127.138 33.9815 127.138 37.3302L101.638 37.3302L76.1382 37.3302Z" fill="#D9D9D9"/>
<path fill-rule="evenodd" clip-rule="evenodd" d="M80.8509 28.7198C80.105 30.5206 79.5979 32.4068 79.3391 34.3302L123.937 34.3302C123.679 32.4068 123.171 30.5206 122.425 28.7198C121.295 25.99 119.637 23.5096 117.548 21.4203C115.459 19.331 112.978 17.6736 110.249 16.5429C107.519 15.4122 104.593 14.8302 101.638 14.8302C98.6834 14.8302 95.7576 15.4122 93.0278 16.5429C90.298 17.6736 87.8176 19.331 85.7283 21.4203C83.639 23.5096 81.9816 25.99 80.8509 28.7198ZM126.961 34.3302C127.079 35.3238 127.138 36.3255 127.138 37.3302L76.1382 37.3302C76.1382 36.3255 76.1976 35.3238 76.3153 34.3302C76.5899 32.0118 77.1822 29.7374 78.0793 27.5718C79.3608 24.478 81.2391 21.6669 83.607 19.299C85.9749 16.9311 88.786 15.0528 91.8798 13.7713C94.9736 12.4898 98.2895 11.8302 101.638 11.8302C104.987 11.8302 108.303 12.4898 111.397 13.7713C114.49 15.0528 117.302 16.9311 119.669 19.299C122.037 21.6669 123.916 24.478 125.197 27.5718C126.094 29.7374 126.686 32.0118 126.961 34.3302Z" fill="black"/>
<path d="M48.5 43.5H111.5V66.5H48.5V43.5Z" fill="white"/>
<path fill-rule="evenodd" clip-rule="evenodd" d="M109.5 45.5H50.5V64.5H109.5V45.5ZM48.5 43.5V66.5H111.5V43.5H48.5Z" fill="black"/>
<path d="M19 7H43V27H19V7Z" fill="white"/>
<path fill-rule="evenodd" clip-rule="evenodd" d="M41 9H21V25H41V9ZM19 7V27H43V7H19Z" fill="black"/>
<path fill-rule="evenodd" clip-rule="evenodd" d="M19.4999 91.9618V74.5H22.4999V92.0394L22.4978 92.0788C22.4223 93.5146 22.6137 95.6364 23.3604 97.3334C24.0813 98.9719 25.1893 100 26.9999 100C28.8105 100 29.9185 98.9719 30.6394 97.3334C31.3861 95.6364 31.5776 93.5146 31.502 92.0788L31.4999 92.0394V74.5H34.4999V91.9618C34.5857 93.6929 34.3727 96.2979 33.3854 98.5416C32.3646 100.861 30.3893 103 26.9999 103C23.6105 103 21.6352 100.861 20.6144 98.5416C19.6272 96.2978 19.4142 93.6929 19.4999 91.9618ZM41.4999 74.5H44.4999V85.3775C44.6534 86.2483 45.113 87.5462 45.9857 88.6124C46.8567 89.6767 48.1199 90.5 49.9999 90.5C50.9684 90.5 51.6217 90.2838 52.0706 90.0093C52.5201 89.7345 52.8495 89.3494 53.0891 88.8802C53.5931 87.8934 53.6535 86.6127 53.5174 85.7281L53.4999 85.6147V74.5H56.4999V85.3916C56.6765 86.6743 56.6131 88.576 55.7608 90.2448C55.3087 91.1298 54.6256 91.9634 53.6355 92.5688C52.6448 93.1746 51.4315 93.5 49.9999 93.5C47.08 93.5 45.0098 92.1567 43.6642 90.5126C42.3562 88.9145 41.717 87.0258 41.5174 85.7281L41.4999 85.6147V74.5Z" fill="#0D7F9C"/>
</svg>
