<svg id="svg" version="1.1" xmlns="http://www.w3.org/2000/svg" style="display: block;" viewBox="0 0 517 504"><path d="M0 0 C170.61 0 341.22 0 517 0 C517 166.32 517 332.64 517 504 C346.39 504 175.78 504 0 504 C0 337.68 0 171.36 0 0 Z " transform="translate(0,0)" style="fill: #000000;"/><path d="M0 0 C7.35880392 4.84997228 13.35605038 11.12484381 19.5 17.375 C20.52296535 18.40801986 21.54639961 19.44057558 22.5703125 20.47265625 C25.05229814 22.9764488 27.52789935 25.48644255 30 28 C28.52257538 31.44797061 26.58643234 33.62304121 23.90234375 36.22265625 C23.10119141 37.00833984 22.30003906 37.79402344 21.47460938 38.60351562 C20.63736328 39.41498047 19.80011719 40.22644531 18.9375 41.0625 C17.27537369 42.67367991 15.61759858 44.28936445 13.96484375 45.91015625 C13.2287085 46.62308838 12.49257324 47.33602051 11.73413086 48.07055664 C9.78441776 49.98180784 9.78441776 49.98180784 9 53 C15.64698546 51.72987539 19.26429712 47.18575138 23.75 42.5 C24.51699219 41.71496094 25.28398437 40.92992187 26.07421875 40.12109375 C27.48996985 38.6705087 28.90157082 37.21585313 30.30761719 35.75585938 C31.52597704 34.49180224 32.75858122 33.24141878 34 32 C49.18 47.18 64.36 62.36 80 78 C73.27774556 85.84263018 73.27774556 85.84263018 70.38671875 88.60546875 C69.77892578 89.19650391 69.17113281 89.78753906 68.54492188 90.39648438 C67.29065871 91.60590532 66.03274641 92.81155159 64.77148438 94.01367188 C64.17013672 94.60083984 63.56878906 95.18800781 62.94921875 95.79296875 C62.40612061 96.3139917 61.86302246 96.83501465 61.3034668 97.37182617 C59.82021351 99.22457316 59.40645341 100.68293263 59 103 C62.90792935 101.67406496 65.28234837 100.08550933 68.171875 97.15625 C69.29142578 96.02896484 69.29142578 96.02896484 70.43359375 94.87890625 C71.19800781 94.09386719 71.96242188 93.30882812 72.75 92.5 C73.91982422 91.32244141 73.91982422 91.32244141 75.11328125 90.12109375 C79.01280156 86.40047453 79.01280156 86.40047453 82 82 C85.44677 83.48343 87.67343301 85.43050188 90.30957031 88.08251953 C91.15013977 88.92324005 91.99070923 89.76396057 92.85675049 90.63015747 C93.75480408 91.53853363 94.65285767 92.44690979 95.578125 93.3828125 C96.5046991 94.31221649 97.43127319 95.24162048 98.38592529 96.19918823 C100.84315789 98.6640385 103.29432361 101.13483666 105.7442627 103.60693359 C108.24773809 106.13090765 110.75692063 108.64919388 113.265625 111.16796875 C118.18267525 116.10643597 123.09333788 121.051212 128 126 C124.83342068 129.75606755 121.68203115 133.45480737 118.1328125 136.859375 C117.14667969 137.82037109 117.14667969 137.82037109 116.140625 138.80078125 C114.77695084 140.11952816 113.40965282 141.43453635 112.0390625 142.74609375 C111.389375 143.38160156 110.7396875 144.01710938 110.0703125 144.671875 C109.48008301 145.2400293 108.88985352 145.80818359 108.28173828 146.39355469 C106.6881598 148.04831967 106.6881598 148.04831967 107 151 C111.08335544 150.47113167 112.94353018 148.40370962 115.765625 145.52734375 C116.65507812 144.62822266 117.54453125 143.72910156 118.4609375 142.80273438 C119.38132812 141.85720703 120.30171875 140.91167969 121.25 139.9375 C122.19461673 138.97783027 123.13992195 138.01883771 124.0859375 137.06054688 C126.39749172 134.71361172 128.7017634 132.35996609 131 130 C136.71700538 134.75136274 141.97689423 139.84614587 147.21484375 145.1171875 C148.49845543 146.4029216 148.49845543 146.4029216 149.80799866 147.71463013 C152.52020465 150.43239954 155.2288983 153.15363891 157.9375 155.875 C159.78427369 157.72679342 161.63127653 159.57835834 163.47851562 161.4296875 C167.98833201 165.95048435 172.49527569 170.47412946 177 175 C175.39283607 178.40578973 173.63169887 180.56760541 170.90234375 183.1875 C170.10119141 183.96867188 169.30003906 184.74984375 168.47460938 185.5546875 C166.78117693 187.18684872 165.08585769 188.81705454 163.38867188 190.4453125 C162.58880859 191.22648438 161.78894531 192.00765625 160.96484375 192.8125 C160.2287085 193.52019531 159.49257324 194.22789062 158.73413086 194.95703125 C156.96271471 197.04392557 156.38812413 198.32483656 156 201 C160.02430163 199.65224484 162.39790704 197.96003011 165.35546875 194.9375 C166.14244141 194.14085937 166.92941406 193.34421875 167.74023438 192.5234375 C168.54783203 191.69070313 169.35542969 190.85796875 170.1875 190 C171.00669922 189.16726563 171.82589844 188.33453125 172.66992188 187.4765625 C174.18336492 185.93696118 175.69370921 184.39430334 177.19995117 182.84765625 C178.45785047 181.55648822 179.72535779 180.27464221 181 179 C196.1307325 187.94889299 213.35173544 200.52119478 218.64350986 218.14289951 C221.69301203 230.95221899 221.62762507 244.36320759 221.61328125 257.45703125 C221.61396536 258.31609943 221.61464946 259.17516761 221.6153543 260.06026816 C221.59615431 274.99515438 220.89079334 289.8851735 220.3125 304.8125 C219.549375 332.594375 218.78625 360.37625 218 389 C126.92 389 35.84 389 -58 389 C-58 366.89 -58 344.78 -58 322 C-57.34 321.67 -56.68 321.34 -56 321 C-55.67 291.63 -55.34 262.26 -55 232 C-55.99 232 -56.98 232 -58 232 C-58.11692002 205.34823943 -58.20503078 178.69651743 -58.25906086 152.04455185 C-58.28481733 139.66893682 -58.31991918 127.29348135 -58.37719727 114.91796875 C-58.42711026 104.12859495 -58.45930959 93.33933675 -58.47044247 82.5498507 C-58.47694779 76.83946178 -58.49218421 71.1294035 -58.52865028 65.41912079 C-58.56273431 60.0379546 -58.57302786 54.65725343 -58.56553841 49.27598953 C-58.56690741 47.30723412 -58.57676545 45.33846222 -58.59602737 43.36980057 C-58.73354887 28.58184301 -57.19617907 17.3016196 -46.46484375 6.1953125 C-34.34583178 -4.59848263 -14.50310233 -8.93601363 0 0 Z " transform="translate(299,115)" style="fill: #FEA031;"/><path d="M0 0 C4.32937318 3.28143199 5.70822513 6.87847637 6.46413612 12.13881493 C6.72910808 14.68193108 6.93933178 17.2247068 7.1340332 19.77416992 C7.21417789 20.74462061 7.29432259 21.7150713 7.3768959 22.71492958 C7.64113373 25.93572412 7.89476413 29.15726383 8.1484375 32.37890625 C8.33305771 34.65334997 8.51836883 36.9277377 8.70433044 39.20207214 C9.09774574 44.03035508 9.48658708 48.85897538 9.8717041 53.68792725 C10.47342286 61.2328015 11.08484918 68.77686777 11.69824219 76.32080078 C12.30481034 83.78532248 12.91095536 91.24987553 13.51351929 98.71472168 C14.84083165 115.15372486 16.20487732 131.58886375 17.61938477 148.02059937 C18.88887038 162.76797713 20.13192275 177.51677916 21.2890625 192.2734375 C21.43328896 194.11251175 21.43328896 194.11251175 21.58042908 195.98873901 C21.97694951 201.05215779 22.37293191 206.11561658 22.76657104 211.17926025 C24.08304134 228.08077895 25.48999481 244.97252214 26.97628212 261.85998917 C27.25389284 265.01547258 27.53053808 268.1710393 27.80693054 271.32662964 C28.62965016 280.71291366 29.45548779 290.09884075 30.30048561 299.48314857 C30.65196891 303.40517585 30.99660471 307.32778598 31.33972168 311.25055313 C31.50039616 313.07026685 31.66394984 314.88972931 31.83078003 316.70888901 C32.67522815 325.92909906 33.33561546 335.13773828 33.50854492 344.39746094 C33.53614301 345.17649906 33.56374109 345.95553719 33.59217548 346.75818253 C33.62572036 352.11030907 32.51905623 354.84502758 29.16015625 359.0234375 C29.49015625 359.3534375 29.82015625 359.6834375 30.16015625 360.0234375 C33.93814691 373.48080568 33.0380903 387.75074654 29.16015625 401.0234375 C29.75441406 400.50394531 30.34867188 399.98445313 30.9609375 399.44921875 C40.25775943 391.62716484 49.10864231 387.58523911 61.16015625 386.0234375 C61.49015625 384.7034375 61.82015625 383.3834375 62.16015625 382.0234375 C55.87426322 382.43562721 50.70377561 383.70199766 44.8359375 385.98828125 C41.97851704 387.09370668 39.06672388 388.05458162 36.16015625 389.0234375 C36.65515625 379.6184375 36.65515625 379.6184375 37.16015625 370.0234375 C39.90457031 369.99765625 42.64898437 369.971875 45.4765625 369.9453125 C93.07546627 369.36233156 138.0896841 360.79727349 184.03613281 348.83618164 C185.06706055 348.56797607 186.09798828 348.29977051 187.16015625 348.0234375 C187.94100586 347.80099365 188.72185547 347.5785498 189.52636719 347.34936523 C190.06551758 347.24180908 190.60466797 347.13425293 191.16015625 347.0234375 C192.93737315 348.8006544 192.28003724 351.1759095 192.28457642 353.54206848 C192.28098114 354.33328598 192.27738586 355.12450348 192.27368164 355.93969727 C192.27382767 356.76889679 192.27397369 357.59809631 192.27412415 358.4524231 C192.27342476 361.20658948 192.26563118 363.96068911 192.2578125 366.71484375 C192.25594841 368.61913516 192.25452447 370.52342705 192.25352478 372.42771912 C192.24969888 377.45011713 192.23986798 382.47248642 192.2288208 387.49487305 C192.21860823 392.6157187 192.21402749 397.73656898 192.20898438 402.85742188 C192.19824578 412.91277307 192.18116849 422.9681029 192.16015625 433.0234375 C185.26881808 434.80315632 178.40677098 436.47030249 171.390625 437.671875 C170.60388397 437.80951263 169.81714294 437.94715027 169.00656128 438.08895874 C166.45467769 438.53206882 163.90145259 438.96649444 161.34765625 439.3984375 C160.45843475 439.54962036 159.56921326 439.70080322 158.65304565 439.85656738 C133.06855022 444.18474265 107.37773762 447.50293418 81.53515625 449.8359375 C80.84285919 449.89946411 80.15056213 449.96299072 79.43728638 450.02844238 C70.65671381 450.82172215 61.97576827 451.18322864 53.16015625 451.0234375 C53.10408203 449.31800781 53.10408203 449.31800781 53.046875 447.578125 C52.50082348 433.78882397 51.26181546 421.20573037 44.16015625 409.0234375 C43.43828125 409.7453125 42.71640625 410.4671875 41.97265625 411.2109375 C41.04453125 412.1390625 40.11640625 413.0671875 39.16015625 414.0234375 C38.29390625 414.9309375 37.42765625 415.8384375 36.53515625 416.7734375 C34.16015625 419.0234375 34.16015625 419.0234375 31.16015625 420.0234375 C31.16015625 421.3434375 31.16015625 422.6634375 31.16015625 424.0234375 C35.84387766 422.22200619 38.69846345 420.74155199 42.16015625 417.0234375 C42.82015625 417.0234375 43.48015625 417.0234375 44.16015625 417.0234375 C44.66996506 418.72886934 45.16753893 420.43796068 45.66015625 422.1484375 C45.93859375 423.09976562 46.21703125 424.05109375 46.50390625 425.03125 C47.16015625 428.0234375 47.16015625 428.0234375 47.16015625 434.0234375 C42.21015625 434.0234375 37.26015625 434.0234375 32.16015625 434.0234375 C32.16015625 435.6734375 32.16015625 437.3234375 32.16015625 439.0234375 C37.44015625 439.0234375 42.72015625 439.0234375 48.16015625 439.0234375 C48.28515625 448.7734375 48.28515625 448.7734375 47.16015625 451.0234375 C40.41015625 451.1484375 40.41015625 451.1484375 38.16015625 450.0234375 C38.16015625 454.3134375 38.16015625 458.6034375 38.16015625 463.0234375 C30.21909899 466.99396613 21.87376831 466.13220658 13.16015625 466.0234375 C12.83015625 466.6834375 12.50015625 467.3434375 12.16015625 468.0234375 C12.16015625 467.3634375 12.16015625 466.7034375 12.16015625 466.0234375 C11.52078125 465.8790625 10.88140625 465.7346875 10.22265625 465.5859375 C8.16015625 465.0234375 8.16015625 465.0234375 7.16015625 464.0234375 C5.9304318 457.87481526 4.30848765 448.72677471 7.16015625 443.0234375 C7.82015625 443.0234375 8.48015625 443.0234375 9.16015625 443.0234375 C9.16015625 442.3634375 9.16015625 441.7034375 9.16015625 441.0234375 C8.62390625 440.7965625 8.08765625 440.5696875 7.53515625 440.3359375 C2.8797457 437.76321062 -0.66119278 434.89946585 -2.83984375 430.0234375 C-1.23550566 430.50202991 0.36862041 430.98133308 1.97265625 431.4609375 C3.31263672 431.86119141 3.31263672 431.86119141 4.6796875 432.26953125 C6.5148868 432.82731623 8.34049351 433.41688325 10.16015625 434.0234375 C9.83015625 432.3734375 9.50015625 430.7234375 9.16015625 429.0234375 C7.79890625 428.5903125 7.79890625 428.5903125 6.41015625 428.1484375 C3.16015625 427.0234375 3.16015625 427.0234375 1.09765625 425.8984375 C-1.31371729 424.8094301 -3.22417214 424.87812241 -5.83984375 425.0234375 C-8.39453831 416.14381367 -6.63094377 407.61271555 -3.83984375 399.0234375 C-3.04320312 399.65572266 -3.04320312 399.65572266 -2.23046875 400.30078125 C-1.5240625 400.84863281 -0.81765625 401.39648438 -0.08984375 401.9609375 C0.60625 402.50621094 1.30234375 403.05148437 2.01953125 403.61328125 C4.12107753 404.99769404 5.70337424 405.58630737 8.16015625 406.0234375 C6.81479248 401.6204288 4.99963313 399.5518735 1.16015625 397.0234375 C0.17015625 397.0234375 -0.81984375 397.0234375 -1.83984375 397.0234375 C0.03515625 391.1484375 0.03515625 391.1484375 1.16015625 390.0234375 C1.22338687 387.98533523 1.21938805 385.94508352 1.1875 383.90625 C1.17525391 382.65972656 1.16300781 381.41320312 1.15039062 380.12890625 C1.11533713 377.48301677 1.07629811 374.83717697 1.03320312 372.19140625 C1.02224609 370.94230469 1.01128906 369.69320313 1 368.40625 C0.98316162 367.25527832 0.96632324 366.10430664 0.94897461 364.91845703 C1.16015625 362.0234375 1.16015625 362.0234375 3.16015625 359.0234375 C2.39703125 358.7965625 1.63390625 358.5696875 0.84765625 358.3359375 C-2.51996098 356.69128722 -3.32668442 355.42804599 -4.83984375 352.0234375 C-5.60892013 347.49256113 -6.01600974 343.0223845 -6.2253418 338.43457031 C-6.28623489 337.13976242 -6.34712799 335.84495453 -6.40986633 334.51091003 C-6.44087244 333.81784445 -6.47187855 333.12477886 -6.50382423 332.41071129 C-6.60495467 330.15075805 -6.71019702 327.89102545 -6.81632996 325.63130188 C-6.97277222 322.29187983 -7.1274919 318.95238422 -7.28094482 315.61282349 C-7.71321046 306.22185462 -8.16099834 296.83161751 -8.609375 287.44140625 C-8.68144669 285.93012052 -8.68144669 285.93012052 -8.75497437 284.38830376 C-9.9366683 259.65286746 -11.22737031 234.92325175 -12.52560043 210.1937027 C-12.77872244 205.36814373 -13.03093493 200.5425374 -13.28313923 195.71693039 C-14.44677955 173.45498642 -15.61563769 151.19332936 -16.80346274 128.93266189 C-17.40811956 117.60092429 -18.0083813 106.26896183 -18.60502815 94.93679905 C-19.00369182 87.37112548 -19.40802343 79.80578455 -19.81683731 72.24065304 C-20.06986305 67.53222753 -20.3172947 62.82351946 -20.5632782 58.1147213 C-20.67695379 55.95956956 -20.79282568 53.80453213 -20.91127014 51.64963722 C-21.28832146 44.77603519 -21.60022215 37.90320866 -21.83984375 31.0234375 C-21.90223614 29.36160809 -21.90223614 29.36160809 -21.96588898 27.66620636 C-22.08122653 24.24834842 -22.15685377 20.83176111 -22.22119141 17.41259766 C-22.25894873 16.36213446 -22.29670605 15.31167126 -22.33560753 14.22937584 C-22.42102902 6.0628551 -22.42102902 6.0628551 -19.48788452 2.40145874 C-13.98968913 -2.53608813 -6.64030936 -3.52458034 0 0 Z " transform="translate(47.83984375,2.9765625)" style="fill: #FDA031;"/><path d="M0 0 C4.32937318 3.28143199 5.70822513 6.87847637 6.46413612 12.13881493 C6.72910808 14.68193108 6.93933178 17.2247068 7.1340332 19.77416992 C7.21417789 20.74462061 7.29432259 21.7150713 7.3768959 22.71492958 C7.64113373 25.93572412 7.89476413 29.15726383 8.1484375 32.37890625 C8.33305771 34.65334997 8.51836883 36.9277377 8.70433044 39.20207214 C9.09774574 44.03035508 9.48658708 48.85897538 9.8717041 53.68792725 C10.47342286 61.2328015 11.08484918 68.77686777 11.69824219 76.32080078 C12.30481034 83.78532248 12.91095536 91.24987553 13.51351929 98.71472168 C14.84083165 115.15372486 16.20487732 131.58886375 17.61938477 148.02059937 C18.88887038 162.76797713 20.13192275 177.51677916 21.2890625 192.2734375 C21.43328896 194.11251175 21.43328896 194.11251175 21.58042908 195.98873901 C21.97694951 201.05215779 22.37293191 206.11561658 22.76657104 211.17926025 C24.08304134 228.08077895 25.48999481 244.97252214 26.97628212 261.85998917 C27.25389284 265.01547258 27.53053808 268.1710393 27.80693054 271.32662964 C28.62965016 280.71291366 29.45548779 290.09884075 30.30048561 299.48314857 C30.65196891 303.40517585 30.99660471 307.32778598 31.33972168 311.25055313 C31.50039616 313.07026685 31.66394984 314.88972931 31.83078003 316.70888901 C32.67715914 325.95018276 33.33615554 335.17904554 33.50854492 344.45996094 C33.53614301 345.24737797 33.56374109 346.034795 33.59217548 346.84607315 C33.61588541 350.64562054 33.29608873 352.80591841 31.26338196 356.05865479 C29.16015625 358.0234375 29.16015625 358.0234375 27.16015625 358.0234375 C27.02738281 357.38535156 26.89460938 356.74726563 26.7578125 356.08984375 C26.58121094 355.26355469 26.40460938 354.43726563 26.22265625 353.5859375 C26.04863281 352.76222656 25.87460938 351.93851562 25.6953125 351.08984375 C25.35262631 349.04682546 25.35262631 349.04682546 24.16015625 348.0234375 C24.08696004 345.32688896 24.06773088 342.65652292 24.09765625 339.9609375 C24.10216797 339.20232422 24.10667969 338.44371094 24.11132812 337.66210938 C24.12314945 335.78251879 24.14108547 333.90296851 24.16015625 332.0234375 C22.84015625 332.0234375 21.52015625 332.0234375 20.16015625 332.0234375 C20.16015625 331.3634375 20.16015625 330.7034375 20.16015625 330.0234375 C19.17015625 330.0234375 18.18015625 330.0234375 17.16015625 330.0234375 C17.16015625 330.6834375 17.16015625 331.3434375 17.16015625 332.0234375 C17.82015625 332.0234375 18.48015625 332.0234375 19.16015625 332.0234375 C19.49015625 336.9734375 19.82015625 341.9234375 20.16015625 347.0234375 C17.19015625 347.0234375 14.22015625 347.0234375 11.16015625 347.0234375 C12.20809288 342.83169096 13.0777926 341.80750789 16.16015625 339.0234375 C15.83015625 338.6934375 15.50015625 338.3634375 15.16015625 338.0234375 C14.70640625 338.6834375 14.25265625 339.3434375 13.78515625 340.0234375 C13.24890625 340.6834375 12.71265625 341.3434375 12.16015625 342.0234375 C11.50015625 342.0234375 10.84015625 342.0234375 10.16015625 342.0234375 C9.83015625 344.3334375 9.50015625 346.6434375 9.16015625 349.0234375 C8.17015625 349.3534375 7.18015625 349.6834375 6.16015625 350.0234375 C5.35451987 352.12928188 5.35451987 352.12928188 4.97265625 354.5859375 C4.73482422 355.82537109 4.73482422 355.82537109 4.4921875 357.08984375 C4.38261719 357.72792969 4.27304687 358.36601562 4.16015625 359.0234375 C0.29893874 358.18333997 -1.40846772 357.26527221 -3.83984375 354.0234375 C-6.10110118 346.11526587 -6.36094468 338.21039465 -6.69921875 330.03125 C-6.7686029 328.50231954 -6.83878844 326.97342527 -6.90969849 325.44456482 C-7.06277686 322.11719762 -7.21129796 318.78966975 -7.35638428 315.46194458 C-7.72192472 307.09653011 -8.11456279 298.7323574 -8.50483322 290.36806679 C-8.59869606 288.35440635 -8.69228162 286.34073297 -8.78560257 284.32704735 C-9.93129732 259.61096976 -11.22459149 234.90292762 -12.52515411 210.19459534 C-12.84277043 204.15225883 -13.15833881 198.1098154 -13.47412109 192.06738281 C-14.57475406 171.02198828 -15.6805472 149.97687988 -16.80346274 128.93266189 C-17.40811956 117.60092429 -18.0083813 106.26896183 -18.60502815 94.93679905 C-19.00369182 87.37112548 -19.40802343 79.80578455 -19.81683731 72.24065304 C-20.06986305 67.53222753 -20.3172947 62.82351946 -20.5632782 58.1147213 C-20.67695379 55.95956956 -20.79282568 53.80453213 -20.91127014 51.64963722 C-21.28832146 44.77603519 -21.60022215 37.90320866 -21.83984375 31.0234375 C-21.90223614 29.36160809 -21.90223614 29.36160809 -21.96588898 27.66620636 C-22.08122653 24.24834842 -22.15685377 20.83176111 -22.22119141 17.41259766 C-22.25894873 16.36213446 -22.29670605 15.31167126 -22.33560753 14.22937584 C-22.42102902 6.0628551 -22.42102902 6.0628551 -19.48788452 2.40145874 C-13.98968913 -2.53608813 -6.64030936 -3.52458034 0 0 Z " transform="translate(47.83984375,2.9765625)" style="fill: #42E4F1;"/><path d="M0 0 C0.99 0 1.98 0 3 0 C3 0.66 3 1.32 3 2 C4.32 2 5.64 2 7 2 C7.04898438 3.12019531 7.09796875 4.24039062 7.1484375 5.39453125 C7.22347856 6.86721203 7.29902582 8.33986707 7.375 9.8125 C7.4059375 10.55048828 7.436875 11.28847656 7.46875 12.04882812 C7.67346148 15.81893115 7.86433827 17.79650741 10 21 C10.2475 22.7634375 10.2475 22.7634375 10.5 24.5625 C10.65847757 28.0571192 10.65847757 28.0571192 13 30 C17.13792744 43.1034369 15.78574693 58.04283045 12 71 C12.99 71.495 12.99 71.495 14 72 C13.67 72.66 13.34 73.32 13 74 C12.90367103 75.81041793 12.87018467 77.62452753 12.875 79.4375 C12.87242188 80.40558594 12.86984375 81.37367188 12.8671875 82.37109375 C13.04234229 85.83812836 13.52489692 87.52489692 16 90 C15.34 90 14.68 90 14 90 C14 91.32 14 92.64 14 94 C18.68372141 92.19856869 21.5383072 90.71811449 25 87 C25.66 87 26.32 87 27 87 C27.50980881 88.70543184 28.00738268 90.41452318 28.5 92.125 C28.7784375 93.07632813 29.056875 94.02765625 29.34375 95.0078125 C30 98 30 98 30 104 C25.05 104 20.1 104 15 104 C15 105.65 15 107.3 15 109 C20.28 109 25.56 109 31 109 C31.125 118.75 31.125 118.75 30 121 C23.25 121.125 23.25 121.125 21 120 C21 124.29 21 128.58 21 133 C13.05894274 136.97052863 4.71361206 136.10876908 -4 136 C-4.33 136.66 -4.66 137.32 -5 138 C-5 137.34 -5 136.68 -5 136 C-5.639375 135.855625 -6.27875 135.71125 -6.9375 135.5625 C-9 135 -9 135 -10 134 C-11.22972445 127.85137776 -12.8516686 118.70333721 -10 113 C-9.34 113 -8.68 113 -8 113 C-8 112.34 -8 111.68 -8 111 C-8.53625 110.773125 -9.0725 110.54625 -9.625 110.3125 C-14.28041055 107.73977312 -17.82134903 104.87602835 -20 100 C-18.39566191 100.47859241 -16.79153584 100.95789558 -15.1875 101.4375 C-14.29417969 101.70433594 -13.40085937 101.97117187 -12.48046875 102.24609375 C-10.64526945 102.80387873 -8.81966274 103.39344575 -7 104 C-7.33 102.35 -7.66 100.7 -8 99 C-8.9075 98.71125 -9.815 98.4225 -10.75 98.125 C-14 97 -14 97 -16.0625 95.875 C-18.47387354 94.7859926 -20.38432839 94.85468491 -23 95 C-25.55469456 86.12037617 -23.79110002 77.58927805 -21 69 C-20.46890625 69.42152344 -19.9378125 69.84304688 -19.390625 70.27734375 C-18.33101562 71.09912109 -18.33101562 71.09912109 -17.25 71.9375 C-16.20585938 72.75541016 -16.20585938 72.75541016 -15.140625 73.58984375 C-13.03907872 74.97425654 -11.45678201 75.56286987 -9 76 C-10.34536377 71.5969913 -12.16052312 69.528436 -16 67 C-16.99 67 -17.98 67 -19 67 C-17.125 61.125 -17.125 61.125 -16 60 C-15.93676938 57.96189773 -15.9407682 55.92164602 -15.97265625 53.8828125 C-15.98490234 52.63628906 -15.99714844 51.38976562 -16.00976562 50.10546875 C-16.04481912 47.45957927 -16.08385814 44.81373947 -16.12695312 42.16796875 C-16.13791016 40.91886719 -16.14886719 39.66976562 -16.16015625 38.3828125 C-16.17699463 37.23184082 -16.19383301 36.08086914 -16.21118164 34.89501953 C-16 32 -16 32 -14 29 C-13.33386665 26.72461677 -13.33386665 26.72461677 -12.875 24.3125 C-12.70742188 23.50425781 -12.53984375 22.69601562 -12.3671875 21.86328125 C-12.24601562 21.24839844 -12.12484375 20.63351562 -12 20 C-10.68 19.67 -9.36 19.34 -8 19 C-7.938125 17.948125 -7.87625 16.89625 -7.8125 15.8125 C-6.851283 11.30217407 -5.35788508 10.03028653 -2 7 C-0.70480005 4.83379456 -0.70480005 4.83379456 0 3 C0.3125 5.6875 0.3125 5.6875 0 9 C-2.4375 11.6875 -2.4375 11.6875 -5 14 C-5.33 14.99 -5.66 15.98 -6 17 C-3.03 17 -0.06 17 3 17 C2.67 15.68 2.34 14.36 2 13 C1.93311409 11.08438746 1.91468281 9.16664408 1.9375 7.25 C1.94652344 6.26515625 1.95554687 5.2803125 1.96484375 4.265625 C1.97644531 3.51796875 1.98804687 2.7703125 2 2 C1.34 2 0.68 2 0 2 C0 1.34 0 0.68 0 0 Z " transform="translate(65,333)" style="fill: #564F49;"/><path d="M0 0 C2 0.8125 2 0.8125 3.08764648 2.31445312 C4.43479039 6.00296702 4.45416794 9.70957023 4.59765625 13.59375 C4.63684677 14.44424927 4.67603729 15.29474854 4.71641541 16.17102051 C4.84028803 18.88454841 4.95211764 21.59839256 5.0625 24.3125 C5.17816791 27.02648752 5.29644407 29.74030751 5.41929626 32.45397949 C5.49513708 34.14103559 5.5665684 35.8282971 5.6330719 37.51574707 C5.78918417 41.09166801 6.11513756 44.35659647 7 47.8125 C7.19823667 50.12250785 7.36168128 52.43563141 7.5 54.75 C7.76180741 59.47297974 7.76180741 59.47297974 8.48675537 64.13580322 C9.05860622 67.11814584 9.2942598 70.01941336 9.49316406 73.04980469 C9.61927818 74.93045876 9.61927818 74.93045876 9.74794006 76.84910583 C9.79136095 77.51996153 9.83478184 78.19081722 9.87951851 78.88200188 C10.01888355 81.03470825 10.16227648 83.18711518 10.30662537 85.3394928 C10.51492701 88.45137565 10.72156226 91.56336239 10.92684937 94.67544556 C11.47451791 102.97045229 12.03421316 111.264645 12.59765625 119.55859375 C12.68375876 120.82710206 12.68375876 120.82710206 12.77160072 122.1212368 C14.00959857 140.31429396 15.41483855 158.49290342 16.84893799 176.67136765 C18.27520143 194.76220615 19.6070972 212.84564174 20.45581055 230.97387695 C20.5472937 232.88366333 20.5472937 232.88366333 20.640625 234.83203125 C20.68735352 235.90557861 20.73408203 236.97912598 20.78222656 238.08520508 C20.91005852 240.69271782 20.91005852 240.69271782 21.49029541 242.68336487 C22.04943494 245.01899933 22.23447544 247.20857251 22.37304688 249.60595703 C22.42980591 250.55439484 22.48656494 251.50283264 22.54504395 252.48001099 C22.63102844 254.00971024 22.63102844 254.00971024 22.71875 255.5703125 C22.81295227 257.15765701 22.81295227 257.15765701 22.90905762 258.77706909 C23.10960999 262.16368065 23.30515448 265.55055568 23.5 268.9375 C23.69544301 272.30298046 23.89201588 275.66838447 24.09094238 279.03366089 C24.21444898 281.12608365 24.3359085 283.21862862 24.45495605 285.31130981 C24.77366367 290.74308049 25.19615042 296.14310231 25.79698181 301.55133057 C26.15246779 305.51065085 26.10545537 309.46578003 26.0625 313.4375 C26.05798828 314.25089844 26.05347656 315.06429688 26.04882812 315.90234375 C26.03723939 317.87242898 26.01931397 319.84247536 26 321.8125 C26.66 321.8125 27.32 321.8125 28 321.8125 C28.33 326.7625 28.66 331.7125 29 336.8125 C26.03 336.8125 23.06 336.8125 20 336.8125 C21.04793663 332.62075346 21.91763635 331.59657039 25 328.8125 C24.67 328.4825 24.34 328.1525 24 327.8125 C23.54625 328.4725 23.0925 329.1325 22.625 329.8125 C22.08875 330.4725 21.5525 331.1325 21 331.8125 C20.34 331.8125 19.68 331.8125 19 331.8125 C18.67 332.8025 18.34 333.7925 18 334.8125 C17.67 334.8125 17.34 334.8125 17 334.8125 C15.35272429 317.62302683 14.30684375 300.43197249 13.4375 283.1875 C13.19042327 278.29925023 12.93840956 273.41128918 12.68359375 268.5234375 C12.62940781 267.41833832 12.57522186 266.31323914 12.51939392 265.1746521 C12.43909691 263.63486191 12.43909691 263.63486191 12.35717773 262.06396484 C12.31213608 261.16737152 12.26709442 260.2707782 12.22068787 259.34701538 C12.04856354 256.81653665 12.04856354 256.81653665 11.50672913 254.38375854 C10.91589164 251.38571512 10.71501237 248.47157308 10.53515625 245.42089844 C10.41998657 243.51301544 10.41998657 243.51301544 10.30249023 241.56658936 C10.22248997 240.18501811 10.14249331 238.80344665 10.0625 237.421875 C9.977012 235.99324371 9.89114981 234.56463477 9.80493164 233.13604736 C9.57884705 229.37828117 9.35651472 225.62030382 9.13537598 221.86224365 C8.782194 215.86244938 8.42547283 209.86287354 8.06466675 203.86353302 C7.94025695 201.78053473 7.8187658 199.69738069 7.69750977 197.61419678 C7.30106312 190.98161951 6.77146758 184.4110012 6 177.8125 C5.89182134 176.00267559 5.80585646 174.19121643 5.75390625 172.37890625 C5.70665405 170.93149048 5.70665405 170.93149048 5.65844727 169.45483398 C5.62678467 168.43848877 5.59512207 167.42214355 5.5625 166.375 C5.01573635 151.08039515 3.79152482 135.85697348 2.4609375 120.61328125 C1.54460367 110.05382656 0.80776913 99.52934605 0.39208984 88.93798828 C0.13235013 82.74734092 -0.33605581 76.60372955 -0.9375 70.4375 C-3.1648949 47.22948221 -4.39391584 24.13231783 -4 0.8125 C-2 -0.1875 -2 -0.1875 0 0 Z " transform="translate(39,13.1875)" style="fill: #DAFCFE;"/><path d="M0 0 C0.33 0 0.66 0 1 0 C1 1.65 1 3.3 1 5 C1.66 5.33 2.32 5.66 3 6 C2.67 6.66 2.34 7.32 2 8 C1.90367103 9.81041793 1.87018467 11.62452753 1.875 13.4375 C1.87242188 14.40558594 1.86984375 15.37367188 1.8671875 16.37109375 C2.04234229 19.83812836 2.52489692 21.52489692 5 24 C4.34 24 3.68 24 3 24 C3 25.32 3 26.64 3 28 C7.68372141 26.19856869 10.5383072 24.71811449 14 21 C14.66 21 15.32 21 16 21 C16.50980881 22.70543184 17.00738268 24.41452318 17.5 26.125 C17.7784375 27.07632812 18.056875 28.02765625 18.34375 29.0078125 C19 32 19 32 19 38 C14.05 38 9.1 38 4 38 C4 39.65 4 41.3 4 43 C9.28 43 14.56 43 20 43 C20.125 52.75 20.125 52.75 19 55 C14.72412002 55.08384078 11.23641013 54.84728203 7 54 C7 57.63 7 61.26 7 65 C-0.88129522 67.06722498 -9.02239083 68.3244782 -17 66 C-18.22517308 60.33357449 -18.09228867 54.76291482 -18 49 C-17.01 49 -16.02 49 -15 49 C-15 49.66 -15 50.32 -15 51 C-12.89611431 51.05402274 -10.79183286 51.09280256 -8.6875 51.125 C-7.51574219 51.14820313 -6.34398438 51.17140625 -5.13671875 51.1953125 C-1.83606339 51.25320618 -1.83606339 51.25320618 1 49 C-3.62 49 -8.24 49 -13 49 C-13.70142451 45.49287747 -14.15125848 42.62796003 -14.28125 39.12890625 C-14.31863281 38.22462891 -14.35601562 37.32035156 -14.39453125 36.38867188 C-14.44673828 34.9897168 -14.44673828 34.9897168 -14.5 33.5625 C-14.71062254 27.94199847 -15.05282252 22.54999035 -16 17 C-16.12353333 12.66150962 -16.04430197 8.34159315 -16 4 C-11.71 3.34 -7.42 2.68 -3 2 C-3.33 3.65 -3.66 5.3 -4 7 C-5.175625 7.5775 -6.35125 8.155 -7.5625 8.75 C-9.61791179 9.85673179 -9.61791179 9.85673179 -11 12 C-11.9687375 17.57674707 -11.38987511 23.38703615 -11 29 C-7.7 29 -4.4 29 -1 29 C-1 27.02 -1 25.04 -1 23 C-3.97 23.66 -6.94 24.32 -10 25 C-10 24.34 -10 23.68 -10 23 C-7.69 22.34 -5.38 21.68 -3 21 C-3.04125 19.7625 -3.0825 18.525 -3.125 17.25 C-3.23850526 13.84484209 -2.5265909 12.00692148 -1 9 C-0.55188863 6.64435404 -0.55188863 6.64435404 -0.375 4.25 C-0.30023438 3.45078125 -0.22546875 2.6515625 -0.1484375 1.828125 C-0.09945312 1.22484375 -0.05046875 0.6215625 0 0 Z " transform="translate(76,399)" style="fill: #3B3A39;"/><path d="M0 0 C3.81980946 1.02316325 5.29661051 1.67648355 7.5 4.9375 C8.27669912 8.90729549 7.77303762 10.50063981 5.625 13.9375 C-1.38329433 21.41562412 -10.8479109 24.41797611 -20.5 26.9375 C-21.30566406 27.15277344 -22.11132812 27.36804688 -22.94140625 27.58984375 C-33.2202448 30.10898665 -43.84950087 30.14123407 -54.375 30.1875 C-56.169375 30.2184375 -56.169375 30.2184375 -58 30.25 C-59.15242188 30.25515625 -60.30484375 30.2603125 -61.4921875 30.265625 C-62.52714355 30.2749707 -63.56209961 30.28431641 -64.62841797 30.29394531 C-68.8994817 29.76378437 -71.50007692 27.93742308 -74.5 24.9375 C-75.13676845 19.29755089 -75.13676845 19.29755089 -74.5 16.9375 C-71.90760873 14.41040162 -70.26089084 13.0542649 -66.64428711 12.49926758 C-65.6156958 12.52657959 -64.58710449 12.5538916 -63.52734375 12.58203125 C-62.37943359 12.59943359 -61.23152344 12.61683594 -60.04882812 12.63476562 C-58.2612207 12.69180664 -58.2612207 12.69180664 -56.4375 12.75 C-29.07766747 13.37476706 -29.07766747 13.37476706 -5.4375 1.0625 C-3.5 -0.0625 -3.5 -0.0625 0 0 Z " transform="translate(374.5,332.0625)" style="fill: #060401;"/><path d="M0 0 C0.99 0 1.98 0 3 0 C3 0.66 3 1.32 3 2 C4.32 2 5.64 2 7 2 C7.04898438 3.12019531 7.09796875 4.24039062 7.1484375 5.39453125 C7.22347856 6.86721203 7.29902582 8.33986707 7.375 9.8125 C7.4059375 10.55048828 7.436875 11.28847656 7.46875 12.04882812 C7.67346148 15.81893115 7.86433827 17.79650741 10 21 C10.25760279 23.69452521 10.08900053 26.28548375 10 29 C9.34 29 8.68 29 8 29 C8.33 29.66 8.66 30.32 9 31 C9.36614698 35.13647124 9.50991511 39.2819313 9.66748047 43.43115234 C9.74971152 45.49276759 9.85318799 47.55265684 9.95703125 49.61328125 C10.03244141 51.55267578 10.03244141 51.55267578 10.109375 53.53125 C10.16061523 54.72298828 10.21185547 55.91472656 10.26464844 57.14257812 C10.17731445 58.08552734 10.08998047 59.02847656 10 60 C5.37482935 63.0834471 1.22134595 63.13847622 -4.25 63.125 C-5.83554687 63.12886719 -5.83554687 63.12886719 -7.453125 63.1328125 C-10 63 -10 63 -11 62 C-11.21747612 59.81957534 -11.37187899 57.63280709 -11.5 55.4453125 C-11.54060547 54.78796112 -11.58121094 54.13060974 -11.62304688 53.45333862 C-11.75310777 51.34413239 -11.87717362 49.23463911 -12 47.125 C-12.12302522 45.0225183 -12.24745751 42.92017836 -12.37695312 40.81808472 C-12.49477388 38.9051631 -12.60689442 36.99189297 -12.71875 35.07861328 C-12.88501635 31.96393796 -12.88501635 31.96393796 -14 29 C-13.66015625 26.73828125 -13.66015625 26.73828125 -13.0625 24.3125 C-12.86785156 23.50425781 -12.67320313 22.69601562 -12.47265625 21.86328125 C-12.31667969 21.24839844 -12.16070312 20.63351562 -12 20 C-10.68 19.67 -9.36 19.34 -8 19 C-7.938125 17.948125 -7.87625 16.89625 -7.8125 15.8125 C-6.851283 11.30217407 -5.35788508 10.03028653 -2 7 C-0.70480005 4.83379456 -0.70480005 4.83379456 0 3 C0.3125 5.6875 0.3125 5.6875 0 9 C-2.4375 11.6875 -2.4375 11.6875 -5 14 C-5.33 14.99 -5.66 15.98 -6 17 C-3.03 17 -0.06 17 3 17 C2.67 15.68 2.34 14.36 2 13 C1.93311409 11.08438746 1.91468281 9.16664408 1.9375 7.25 C1.94652344 6.26515625 1.95554687 5.2803125 1.96484375 4.265625 C1.97644531 3.51796875 1.98804687 2.7703125 2 2 C1.34 2 0.68 2 0 2 C0 1.34 0 0.68 0 0 Z " transform="translate(65,333)" style="fill: #919292;"/><path d="M0 0 C1.58101193 3.55305705 2.32834067 6.59403651 2.6328125 10.46484375 C2.7167627 11.50648682 2.80071289 12.54812988 2.88720703 13.62133789 C3.00491455 15.26283813 3.00491455 15.26283813 3.125 16.9375 C3.20991699 18.05310303 3.29483398 19.16870605 3.38232422 20.31811523 C3.9534264 28.22908695 4.25541997 36.06779106 4 44 C1.14525419 41.14525419 1.47245631 38.13265049 1.21875 34.2890625 C1.15973511 33.52451752 1.10072021 32.75997253 1.03991699 31.97225952 C0.85127832 29.52373326 0.67435263 27.07458242 0.5 24.625 C0.27003643 21.40804401 0.02884427 18.19220365 -0.21875 14.9765625 C-0.26777466 14.23789948 -0.31679932 13.49923645 -0.36730957 12.7381897 C-0.64934759 9.07674318 -1.01284886 6.13680172 -3 3 C-4.65 3 -6.3 3 -8 3 C-7.08541467 22.15188742 -6.16623875 41.30277197 -4.9375 60.4375 C-4.85838379 61.68345947 -4.77926758 62.92941895 -4.69775391 64.21313477 C-4.38511666 68.95545506 -4.0673932 73.68303845 -3.5 78.40234375 C-2.80910406 84.25389129 -2.52205609 90.1333985 -2.18405151 96.01394653 C-1.97430437 99.65674305 -1.75586301 103.29902397 -1.5390625 106.94140625 C-1.47273872 108.06116096 -1.47273872 108.06116096 -1.40507507 109.20353699 C-0.97323381 116.48695928 -0.52708159 123.76941856 -0.06466675 131.05096436 C0.05958837 133.01644358 0.18107259 134.98209736 0.30249023 136.94775391 C0.74106472 144.06688843 0.74106472 144.06688843 1.53125 151.15234375 C2.26968519 157.21366596 2.34881688 163.29442978 2.51757812 169.39453125 C2.76329838 176.69195935 3.30648314 183.93392259 3.9375 191.20703125 C5.1591598 205.31551579 5.95983775 219.4409257 6.75268555 233.57885742 C6.93770419 236.85873343 7.12690015 240.13834946 7.31640625 243.41796875 C7.37059219 244.41056198 7.42477814 245.40315521 7.48060608 246.42582703 C7.53413742 247.34902237 7.58766876 248.27221771 7.64282227 249.22338867 C7.68786392 250.02814133 7.73290558 250.83289398 7.77931213 251.66203308 C7.96183151 254.03459569 7.96183151 254.03459569 8.5 256.47032166 C9.01793639 259.09074658 9.22320885 261.58469782 9.35717773 264.25146484 C9.43747475 265.79125504 9.43747475 265.79125504 9.51939392 267.3621521 C9.57357986 268.46725128 9.62776581 269.57235046 9.68359375 270.7109375 C9.74402359 271.87009674 9.80445343 273.02925598 9.86671448 274.22354126 C10.124155 279.16241993 10.37330954 284.10170543 10.62231445 289.04101562 C11.39988858 304.35768101 12.35875254 319.62278153 13.84120178 334.88882446 C13.99404503 336.92083042 14 338.96225388 14 341 C12.68 341 11.36 341 10 341 C9.96463638 340.39944794 9.92927277 339.79889587 9.89283752 339.18014526 C9.52346225 332.91804128 9.14961476 326.65621556 8.77319336 320.39453125 C8.63337827 318.05898743 8.49469573 315.72337551 8.35717773 313.38769531 C8.15908212 310.02650621 7.95688746 306.66558467 7.75390625 303.3046875 C7.6934462 302.26384003 7.63298615 301.22299255 7.57069397 300.15060425 C7.27756122 295.35895537 6.81348761 290.73411529 6 286 C5.83315481 283.40631564 5.70053353 280.82649545 5.60546875 278.23046875 C5.538729 276.63019165 5.47156801 275.02993207 5.40405273 273.4296875 C5.36915741 272.57858398 5.33426208 271.72748047 5.29830933 270.85058594 C4.50190831 251.71064153 3.29318626 232.60785449 1.9375 213.5 C1.8495517 212.25326508 1.76160339 211.00653015 1.67098999 209.72201538 C1.41722876 206.13741268 1.16061599 202.5530303 0.90234375 198.96875 C0.82634949 197.90674881 0.75035522 196.84474762 0.67205811 195.75056458 C0.32871008 191.05724127 -0.05096738 186.37549935 -0.54101562 181.69506836 C-0.94634151 177.76292951 -1.16202295 173.86431463 -1.24609375 169.91015625 C-1.27896484 168.62947266 -1.31183594 167.34878906 -1.34570312 166.02929688 C-1.40608587 163.41999157 -1.46346221 160.81061467 -1.51757812 158.20117188 C-1.72935821 150.18949111 -2.32011848 142.31021936 -3.2106781 134.3457489 C-4.22510648 125.20614875 -4.87430252 116.04820594 -5.5 106.875 C-5.56314392 105.96511322 -5.62628784 105.05522644 -5.69134521 104.11776733 C-6.7813586 88.35524522 -7.63782898 72.58594314 -8.35351562 56.80224609 C-8.4077771 55.60591049 -8.4077771 55.60591049 -8.46313477 54.38540649 C-8.53395546 52.82208796 -8.60443694 51.25875401 -8.67456055 49.69540405 C-8.90468064 44.68942031 -9.20482876 39.6913992 -9.5390625 34.69140625 C-10.0009156 27.4986047 -10.21612544 20.33181326 -10.25 13.125 C-10.270625 11.97386719 -10.29125 10.82273437 -10.3125 9.63671875 C-10.31765625 8.54230469 -10.3228125 7.44789062 -10.328125 6.3203125 C-10.3374707 5.34336426 -10.34681641 4.36641602 -10.35644531 3.35986328 C-10.23881836 2.5811084 -10.12119141 1.80235352 -10 1 C-6.1496895 -1.56687367 -4.41430237 -0.83288724 0 0 Z " transform="translate(43,11)" style="fill: #09E1F9;"/><path d="M0 0 C0.66 0 1.32 0 2 0 C4.42480544 32.18755742 6.84579042 64.37539933 9.26146314 96.56364336 C9.54683901 100.3661615 9.83224735 104.16867721 10.11767578 107.97119141 C10.17449746 108.72818445 10.23131914 109.4851775 10.28986269 110.26510973 C11.20926438 122.51257857 12.13129528 134.75984811 13.05430275 147.00704567 C14.00175694 159.57940502 14.94637429 172.15197521 15.88837385 184.72474444 C16.46944445 192.47903884 17.05271127 200.23316156 17.63881338 207.98707731 C18.08845319 213.93880516 18.53414041 219.89082235 18.97837257 225.84295654 C19.16089654 228.28026617 19.34469229 230.71748095 19.52986717 233.15459061 C19.7829274 236.48768979 20.03136538 239.82110332 20.27868652 243.15463257 C20.38957855 244.59339125 20.38957855 244.59339125 20.50271082 246.06121576 C20.94097957 252.05202268 21.08432475 257.99381767 21 264 C20.01 264 19.02 264 18 264 C17.53440968 258.25056599 17.07678259 252.50053557 16.625 246.75 C16.55686096 245.88329681 16.48872192 245.01659363 16.41851807 244.12362671 C15.27545193 229.48459806 14.36574657 214.84256292 13.64697266 200.17675781 C13.61013367 199.45201767 13.57329468 198.72727753 13.53533936 197.98057556 C13.4367434 196.03384655 13.34294263 194.08687632 13.24951172 192.13989258 C13.10979173 189.19146625 13.10979173 189.19146625 12.51147461 187.16262817 C11.88526675 184.51488236 11.72669921 181.97483043 11.56689453 179.25805664 C11.49645432 178.09506042 11.4260141 176.93206421 11.35343933 175.73382568 C11.28063248 174.47201477 11.20782562 173.21020386 11.1328125 171.91015625 C11.01149329 169.89677096 10.89016727 167.88338606 10.76853085 165.87001991 C10.64003106 163.73443188 10.51316848 161.59875175 10.38668823 159.46304321 C9.95021208 152.10487274 9.49865643 144.74762816 9.04296875 137.390625 C8.99812159 136.66590311 8.95327442 135.94118122 8.90706825 135.19449806 C8.20505941 123.88984627 7.40564848 112.59768041 6.4375 101.3125 C5.12197428 85.93839093 4.06266418 70.55363876 3.06103516 55.15600586 C2.93914577 53.28238814 2.8172385 51.40877159 2.6953125 49.53515625 C2.63630768 48.62726852 2.57730286 47.7193808 2.51651001 46.78398132 C2.15715007 41.29030608 1.77588255 35.79881429 1.3671875 30.30859375 C1.27252197 29.03185791 1.17785645 27.75512207 1.08032227 26.43969727 C0.90982497 24.17038911 0.73617988 21.90131365 0.55834961 19.63256836 C0.06617997 13.0750848 -0.09444116 6.57536481 0 0 Z " transform="translate(47,69)" style="fill: #05E1F9;"/><path d="M0 0 C5.61 0 11.22 0 17 0 C17.125 9.75 17.125 9.75 16 12 C11.72412002 12.08384078 8.23641013 11.84728203 4 11 C4 14.63 4 18.26 4 22 C-3.88129522 24.06722498 -12.02239083 25.3244782 -20 23 C-21.22517308 17.33357449 -21.09228867 11.76291482 -21 6 C-20.01 6 -19.02 6 -18 6 C-18 6.66 -18 7.32 -18 8 C-15.93757383 8.02717692 -13.87504297 8.0464758 -11.8125 8.0625 C-10.66394531 8.07410156 -9.51539062 8.08570313 -8.33203125 8.09765625 C-5.40699414 8.01192832 -2.83683709 7.67849023 0 7 C0 4.69 0 2.38 0 0 Z " transform="translate(79,442)" style="fill: #7E7E7E;"/><path d="M0 0 C3 2 3 2 3.73046875 4.00390625 C4.78973997 9.93401434 5.20091153 15.73829856 5.25 21.75 C5.26389771 22.81263062 5.26389771 22.81263062 5.27807617 23.89672852 C5.213125 34.786875 5.213125 34.786875 2 38 C1.71606022 40.51489516 1.5518876 43.02989582 1.37890625 45.5546875 C1 48 1 48 -1 51 C-1.24055468 53.05709596 -1.24055468 53.05709596 -1.125 55.1875 C-1.08375 56.445625 -1.0425 57.70375 -1 59 C-3.90600261 60.25664978 -5.79604584 61 -9 61 C-8.67 61.33 -8.34 61.66 -8 62 C-6.08575543 61.8981629 -6.08575543 61.8981629 -3.9375 61.5625 C-2.638125 61.376875 -1.33875 61.19125 0 61 C0 62.98 0 64.96 0 67 C-3.3 67 -6.6 67 -10 67 C-10.40673138 64.66129456 -10.72796635 62.35622988 -11 60 C-11.11472656 59.18144531 -11.22945312 58.36289062 -11.34765625 57.51953125 C-11.57365109 54.80348415 -11.63247602 52.65727771 -11 50 C-9.0966593 48.00744021 -7.23216189 46.7225481 -4.84765625 45.3515625 C-2.81725421 44.1348032 -2.81725421 44.1348032 -2.24609375 41.8359375 C-2.16488281 41.23007812 -2.08367187 40.62421875 -2 40 C-3.485 40.495 -3.485 40.495 -5 41 C-7.18584749 41.09467365 -9.37460867 41.12988914 -11.5625 41.125 C-12.71878906 41.12757813 -13.87507813 41.13015625 -15.06640625 41.1328125 C-18 41 -18 41 -20 40 C-20 38.68 -20 37.36 -20 36 C-19.11957031 35.96261719 -18.23914062 35.92523438 -17.33203125 35.88671875 C-15.58986328 35.78810547 -15.58986328 35.78810547 -13.8125 35.6875 C-12.66394531 35.62949219 -11.51539063 35.57148438 -10.33203125 35.51171875 C-6.83391577 34.97449351 -4.9146557 33.93102411 -2 32 C-1.34 32 -0.68 32 0 32 C-0.15339844 30.75347656 -0.30679688 29.50695312 -0.46484375 28.22265625 C-1.08552414 22.63653273 -1.33586621 17.05133032 -1.5625 11.4375 C-1.60568359 10.42880859 -1.64886719 9.42011719 -1.69335938 8.38085938 C-1.79829618 5.92067425 -1.90045701 3.46040825 -2 1 C-1.34 0.67 -0.68 0.34 0 0 Z " transform="translate(75,361)" style="fill: #4D4D4D;"/><path d="M0 0 C0.99 0 1.98 0 3 0 C3 0.66 3 1.32 3 2 C4.32 2 5.64 2 7 2 C7.04898438 3.12019531 7.09796875 4.24039062 7.1484375 5.39453125 C7.22347856 6.86721203 7.29902582 8.33986707 7.375 9.8125 C7.4059375 10.55048828 7.436875 11.28847656 7.46875 12.04882812 C7.67346148 15.81893115 7.86433827 17.79650741 10 21 C10.25760279 23.69452521 10.08900053 26.28548375 10 29 C9.34 29 8.68 29 8 29 C7.67 29.66 7.34 30.32 7 31 C4.17108435 31.45132857 1.40944046 31.79653887 -1.4375 32.0625 C-6.88447892 32.39059465 -6.88447892 32.39059465 -12 34 C-14.56786548 29.57756501 -13.71809676 26.48856529 -12.5078125 21.79296875 C-12.34023438 21.20128906 -12.17265625 20.60960937 -12 20 C-10.68 19.67 -9.36 19.34 -8 19 C-7.938125 17.948125 -7.87625 16.89625 -7.8125 15.8125 C-6.851283 11.30217407 -5.35788508 10.03028653 -2 7 C-0.70480005 4.83379456 -0.70480005 4.83379456 0 3 C0.3125 5.6875 0.3125 5.6875 0 9 C-2.4375 11.6875 -2.4375 11.6875 -5 14 C-5.33 14.99 -5.66 15.98 -6 17 C-3.03 17 -0.06 17 3 17 C2.67 15.68 2.34 14.36 2 13 C1.93311409 11.08438746 1.91468281 9.16664408 1.9375 7.25 C1.94652344 6.26515625 1.95554687 5.2803125 1.96484375 4.265625 C1.97644531 3.51796875 1.98804687 2.7703125 2 2 C1.34 2 0.68 2 0 2 C0 1.34 0 0.68 0 0 Z " transform="translate(65,333)" style="fill: #506163;"/><path d="M0 0 C0.51949219 0.39832031 1.03898437 0.79664063 1.57421875 1.20703125 C6.08557324 4.64302666 6.08557324 4.64302666 10.9375 7.5625 C13 9 13 9 13.625 11.0703125 C14.10560914 14.82507139 14.10637818 18.53560124 14.0625 22.3125 C14.05798828 23.05306641 14.05347656 23.79363281 14.04882812 24.55664062 C14.03712175 26.37112899 14.01918898 28.18557534 14 30 C10.93085444 29.46601015 8.79943723 28.89554023 6 27.4375 C2.97639305 25.98868834 1.28890191 25.70980277 -2 26 C-4.55469456 17.12037617 -2.79110002 8.58927805 0 0 Z " transform="translate(44,402)" style="fill: #FA9E32;"/><path d="M0 0 C2.15234375 1.40625 2.15234375 1.40625 4 4 C4.62320874 7.34107009 4.603668 10.60969388 4.5625 14 C4.58634766 14.90234375 4.61019531 15.8046875 4.63476562 16.734375 C4.62014421 23.32375721 4.62014421 23.32375721 1.625 26.58984375 C-1.34077947 28.18306755 -2.70754255 28.75979787 -6 28 C-9.22233899 25.05657433 -10.26975747 22.74589305 -10.53125 18.49609375 C-10.54181349 16.80989675 -10.53081703 15.12344847 -10.5 13.4375 C-10.51546875 12.58736328 -10.5309375 11.73722656 -10.546875 10.86132812 C-10.52210017 6.91283967 -10.50818001 4.70520743 -8.15625 1.44140625 C-5.19875824 -0.5356127 -3.48742447 -0.58123741 0 0 Z " transform="translate(344,286)" style="fill: #030200;"/><path d="M0 0 C2.15234375 1.40625 2.15234375 1.40625 4 4 C4.62320874 7.34107009 4.603668 10.60969388 4.5625 14 C4.58634766 14.90234375 4.61019531 15.8046875 4.63476562 16.734375 C4.62014421 23.32375721 4.62014421 23.32375721 1.625 26.58984375 C-1.34077947 28.18306755 -2.70754255 28.75979787 -6 28 C-9.22233899 25.05657433 -10.26975747 22.74589305 -10.53125 18.49609375 C-10.54181349 16.80989675 -10.53081703 15.12344847 -10.5 13.4375 C-10.51546875 12.58736328 -10.5309375 11.73722656 -10.546875 10.86132812 C-10.52210017 6.91283967 -10.50818001 4.70520743 -8.15625 1.44140625 C-5.19875824 -0.5356127 -3.48742447 -0.58123741 0 0 Z " transform="translate(300,286)" style="fill: #030200;"/><path d="M0 0 C2 0.8125 2 0.8125 3.08764648 2.31445312 C4.43479039 6.00296702 4.45416794 9.70957023 4.59765625 13.59375 C4.63684677 14.44424927 4.67603729 15.29474854 4.71641541 16.17102051 C4.84028803 18.88454841 4.95211764 21.59839256 5.0625 24.3125 C5.17816791 27.02648752 5.29644407 29.74030751 5.41929626 32.45397949 C5.49513708 34.14103559 5.5665684 35.8282971 5.6330719 37.51574707 C5.78918417 41.09166801 6.11513756 44.35659647 7 47.8125 C7.19823667 50.12250785 7.36168128 52.43563141 7.5 54.75 C7.75901233 59.45945278 7.75901233 59.45945278 8.48477173 64.10803223 C9.08214341 67.24367627 9.31448789 70.30860631 9.52490234 73.49414062 C9.56905116 74.14812552 9.61319998 74.80211042 9.65868664 75.47591305 C9.80410042 77.64000343 9.94494725 79.80436732 10.0859375 81.96875 C10.18820176 83.49872651 10.29082419 85.02867912 10.39378357 86.55860901 C10.61140419 89.79914698 10.82728132 93.0397938 11.04165649 96.2805481 C11.59442871 104.63415549 12.15671899 112.98711878 12.72265625 121.33984375 C12.77792418 122.15661528 12.8331921 122.9733868 12.89013481 123.81490898 C13.84369584 137.87329018 14.89472043 151.92130678 16.18701172 165.953125 C16.97925182 174.93417288 17.12638918 183.80634727 17 192.8125 C16.67 192.8125 16.34 192.8125 16 192.8125 C15.94465088 192.01030029 15.88930176 191.20810059 15.83227539 190.3815918 C15.5797202 186.7541003 15.32118254 183.12705947 15.0625 179.5 C14.97548828 178.23736328 14.88847656 176.97472656 14.79882812 175.67382812 C14.71181641 174.46533203 14.62480469 173.25683594 14.53515625 172.01171875 C14.456604 170.89627686 14.37805176 169.78083496 14.29711914 168.6315918 C14.09415988 165.7365632 14.09415988 165.7365632 13 162.8125 C12.6184837 159.85303671 12.28164812 156.90589402 11.98828125 153.9375 C11.90008621 153.04764404 11.81189117 152.15778809 11.72102356 151.2409668 C10.88810955 142.37546914 10.56443075 133.51568123 10.2805481 124.61889648 C9.49738912 100.99826686 7.31250915 77.5972215 4.91790771 54.09458923 C3.86799026 43.6988615 2.99718614 33.29187679 2.1875 22.875 C2.12442657 22.07545898 2.06135315 21.27591797 1.99636841 20.45214844 C0.92671049 6.85040894 0.92671049 6.85040894 1 1.8125 C-0.32 1.8125 -1.64 1.8125 -3 1.8125 C-3 10.0625 -3 18.3125 -3 26.8125 C-3.33 26.8125 -3.66 26.8125 -4 26.8125 C-4 18.2325 -4 9.6525 -4 0.8125 C-2 -0.1875 -2 -0.1875 0 0 Z " transform="translate(39,13.1875)" style="fill: #77ECFA;"/><path d="M0 0 C0.33 0 0.66 0 1 0 C1 3.3 1 6.6 1 10 C-12.21240684 12.65806416 -25.464628 12.22540256 -38.875 12.125 C-41.22004826 12.11494933 -43.56510069 12.10582718 -45.91015625 12.09765625 C-51.60686316 12.07581009 -57.30341166 12.04249819 -63 12 C-62.67 10.35 -62.34 8.7 -62 7 C-61.10583374 6.9845388 -61.10583374 6.9845388 -60.19360352 6.96876526 C-53.96376677 6.86020272 -47.73406022 6.74564838 -41.50439453 6.62768555 C-39.18248226 6.58449546 -36.86054149 6.54280982 -34.53857422 6.50268555 C-31.19229559 6.44459541 -27.84615837 6.38101436 -24.5 6.31640625 C-23.4694751 6.29969376 -22.4389502 6.28298126 -21.37719727 6.26576233 C-10.9890584 6.56115751 -10.9890584 6.56115751 -2.0625 2.4375 C-1.381875 1.633125 -0.70125 0.82875 0 0 Z " transform="translate(516,347)" style="fill: #090601;"/><path d="M0 0 C0.33 0 0.66 0 1 0 C2.09647584 9.41053049 3.06558204 18.78047272 3.4375 28.25 C3.80960795 37.36338079 4.62132502 46.42441736 5.5 55.5 C5.56589325 56.19065552 5.6317865 56.88131104 5.69967651 57.59289551 C6.23159657 64.82979932 6.23159657 64.82979932 7.5 71.94822693 C8.34331714 75.40881772 8.46661813 78.96023373 8.71875 82.50390625 C8.78132492 83.35852448 8.84389984 84.2131427 8.90837097 85.09365845 C9.11152 87.91622251 9.30687692 90.7392329 9.5 93.5625 C9.56692047 94.53063629 9.63384094 95.49877258 9.70278931 96.49624634 C10.71732309 111.3877329 11.3717013 126.26518194 11.6875 141.1875 C11.70619141 142.06576447 11.72488281 142.94402893 11.74414062 143.84890747 C11.97533673 155.23304138 12.04139108 166.61377422 12 178 C11.67 178 11.34 178 11 178 C10.96463638 177.3935817 10.92927277 176.78716339 10.89283752 176.16236877 C10.52244286 169.81877128 10.14875141 163.47537394 9.77319336 157.13208008 C9.63368511 154.76852253 9.4950017 152.40491613 9.35717773 150.04125977 C9.15828752 146.63284161 8.95637663 143.22461338 8.75390625 139.81640625 C8.6934462 138.76916885 8.63298615 137.72193146 8.57069397 136.64295959 C8.25514616 131.38078341 7.82911161 126.16103239 7.21174622 120.92585754 C6.94204669 118.47290759 6.82460106 116.03263143 6.75390625 113.56640625 C6.70665405 112.11899048 6.70665405 112.11899048 6.65844727 110.64233398 C6.62678467 109.62598877 6.59512207 108.60964355 6.5625 107.5625 C6.01573635 92.26789515 4.79152482 77.04447348 3.4609375 61.80078125 C3.2859362 59.7838994 3.11145039 57.76697276 2.9375 55.75 C2.85322754 54.77337402 2.76895508 53.79674805 2.68212891 52.79052734 C2.03262481 44.99777461 1.62227149 37.2060117 1.34155273 29.39160156 C1.18946647 25.33856106 0.95802913 21.34089855 0.4765625 17.3125 C0.02140792 13.50388394 -0.10291841 9.77724921 -0.0625 5.9375 C-0.05347656 4.81214844 -0.04445312 3.68679687 -0.03515625 2.52734375 C-0.02355469 1.69332031 -0.01195312 0.85929687 0 0 Z " transform="translate(38,72)" style="fill: #94F1FB;"/><path d="M0 0 C2.45849884 0.14336159 4.9167699 0.28965313 7.375 0.4375 C8.05433594 0.47681641 8.73367188 0.51613281 9.43359375 0.55664062 C13.07684259 0.77795948 16.68730024 1.07530202 20.3125 1.5 C28.71451444 2.36741445 37.18662391 2.37096747 45.625 2.5625 C47.41016462 2.60577574 49.19532101 2.64939263 50.98046875 2.69335938 C55.32022748 2.7995089 59.66007178 2.90103258 64 3 C64 4.65 64 6.3 64 8 C18.19105075 8.61916858 18.19105075 8.61916858 1 5 C0.67 3.35 0.34 1.7 0 0 Z " transform="translate(453,430)" style="fill: #100A02;"/><path d="M0 0 C-0.0625 2.1875 -0.0625 2.1875 -1 5 C-2.625 6.09375 -2.625 6.09375 -4.5625 7.1875 C-7.29219513 9.01071739 -7.29219513 9.01071739 -8.53125 11.94140625 C-8.56829554 14.67814544 -8.31573739 17.2792842 -8 20 C-7.87572299 21.4295252 -7.7534763 22.85922778 -7.6328125 24.2890625 C-7.48777872 25.81803502 -7.33932456 27.34668685 -7.1875 28.875 C-7.11797119 29.61266602 -7.04844238 30.35033203 -6.97680664 31.11035156 C-6.50781182 35.16908574 -6.06039963 38.15613808 -3 41 C0.60465748 41.81314911 0.60465748 41.81314911 4 42 C4 43.65 4 45.3 4 47 C-0.62 47 -5.24 47 -10 47 C-10.70142451 43.49287747 -11.15125848 40.62796003 -11.28125 37.12890625 C-11.33732422 35.77249023 -11.33732422 35.77249023 -11.39453125 34.38867188 C-11.42933594 33.45603516 -11.46414062 32.52339844 -11.5 31.5625 C-11.71062254 25.94199847 -12.05282252 20.54999035 -13 15 C-13.06522873 12.70916711 -13.0858841 10.41664206 -13.0625 8.125 C-13.05347656 6.97257812 -13.04445312 5.82015625 -13.03515625 4.6328125 C-13.02355469 3.76398438 -13.01195312 2.89515625 -13 2 C-11.39658445 1.66307215 -9.79223445 1.33058907 -8.1875 1 C-7.29417969 0.814375 -6.40085937 0.62875 -5.48046875 0.4375 C-3 0 -3 0 0 0 Z " transform="translate(73,401)" style="fill: #8F8F8F;"/><path d="M0 0 C0.99 0.33 1.98 0.66 3 1 C3.66 10.9 4.32 20.8 5 31 C9.95 31 14.9 31 20 31 C18 33 18 33 14.9609375 33.1953125 C13.77757813 33.17210937 12.59421875 33.14890625 11.375 33.125 C9.59222656 33.09792969 9.59222656 33.09792969 7.7734375 33.0703125 C6.40058594 33.03550781 6.40058594 33.03550781 5 33 C5.33 35.31 5.66 37.62 6 40 C-2.68965517 36.62068966 -2.68965517 36.62068966 -4 34 C-3.53094238 33.26942383 -3.06188477 32.53884766 -2.57861328 31.78613281 C-0.65480816 28.39076257 -0.66710469 26.30097102 -0.7421875 22.421875 C-0.75636719 21.17921875 -0.77054688 19.9365625 -0.78515625 18.65625 C-0.81480469 17.3671875 -0.84445313 16.078125 -0.875 14.75 C-0.91813235 12.18235681 -0.95741561 9.61464502 -0.9921875 7.046875 C-1.01651855 5.91088867 -1.04084961 4.77490234 -1.06591797 3.60449219 C-1 1 -1 1 0 0 Z " transform="translate(50,364)" style="fill: #5E5A56;"/><path d="M0 0 C0.34018163 1.70698282 0.6718089 3.41567133 1 5.125 C1.185625 6.07632812 1.37125 7.02765625 1.5625 8.0078125 C2.00725046 11.04958796 2.07286471 13.93057393 2 17 C10.07861415 17.09579384 17.98340366 17.12513633 26 16 C26 12.37 26 8.74 26 5 C26.99 5 27.98 5 29 5 C29 9.29 29 13.58 29 18 C21.05894274 21.97052863 12.71361206 21.10876908 4 21 C3.67 21.66 3.34 22.32 3 23 C3 22.34 3 21.68 3 21 C2.360625 20.855625 1.72125 20.71125 1.0625 20.5625 C-1 20 -1 20 -2 19 C-3.06413353 13.44285821 -3.60863368 7.64275632 -3 2 C-1 0 -1 0 0 0 Z " transform="translate(57,448)" style="fill: #464646;"/><path d="M0 0 C0.66 0 1.32 0 2 0 C2.50980881 1.70543184 3.00738268 3.41452318 3.5 5.125 C3.7784375 6.07632812 4.056875 7.02765625 4.34375 8.0078125 C5 11 5 11 5 17 C-0.28 17 -5.56 17 -11 17 C-11 14.03 -11 11.06 -11 8 C-10.37351562 7.67386719 -9.74703125 7.34773438 -9.1015625 7.01171875 C-7.87566406 6.35623047 -7.87566406 6.35623047 -6.625 5.6875 C-5.81289062 5.25824219 -5.00078125 4.82898438 -4.1640625 4.38671875 C-1.73165957 3.03221276 -1.73165957 3.03221276 0 0 Z " transform="translate(90,420)" style="fill: #F69B30;"/><path d="M0 0 C0.33 0 0.66 0 1 0 C1.21690267 4.09266091 1.41378687 8.18574198 1.59204102 12.28027344 C1.65552913 13.67343971 1.72451436 15.06636665 1.79907227 16.45898438 C1.90519436 18.45892298 1.99001904 20.45995606 2.07421875 22.4609375 C2.13182373 23.66540527 2.18942871 24.86987305 2.2487793 26.11083984 C2.16668213 27.0642627 2.08458496 28.01768555 2 29 C-1.22791555 31.1519437 -2.28400809 31.20086443 -6 31 C-6.33768172 27.93796326 -6.66936893 24.87530542 -7 21.8125 C-7.14308594 20.51602539 -7.14308594 20.51602539 -7.2890625 19.19335938 C-7.72690189 15.11207075 -8.13621913 11.11211498 -8 7 C-6.02 7 -4.04 7 -2 7 C-1.67 8.98 -1.34 10.96 -1 13 C-0.67 10.03 -0.34 7.06 0 4 C-0.99 3.67 -1.98 3.34 -3 3 C-2.01 2.67 -1.02 2.34 0 2 C0 1.34 0 0.68 0 0 Z " transform="translate(73,364)" style="fill: #767676;"/><path d="M0 0 C0 2.64 0 5.28 0 8 C-6.36602624 10.77790236 -12.28186972 12.50910785 -19.125 10.3203125 C-20.78225734 9.61865113 -22.39719986 8.81845114 -24 8 C-24 5.69 -24 3.38 -24 1 C-23.01 1 -22.02 1 -21 1 C-21 1.66 -21 2.32 -21 3 C-13.38543686 3.30503443 -6.64707522 0 0 0 Z " transform="translate(82,447)" style="fill: #929392;"/><path d="M0 0 C0.33 0 0.66 0 1 0 C1.03536362 0.59246521 1.07072723 1.18493042 1.10716248 1.79534912 C1.47585679 7.95987382 1.84980358 14.12406392 2.22680664 20.28808594 C2.36682806 22.58878545 2.5055085 24.88956698 2.64282227 27.19042969 C2.84038731 30.49696963 3.04276762 33.80318494 3.24609375 37.109375 C3.3065538 38.13867126 3.36701385 39.16796753 3.42930603 40.22845459 C3.48929276 41.18914856 3.54927948 42.14984253 3.61108398 43.13964844 C3.66215805 43.98348083 3.71323212 44.82731323 3.76585388 45.69671631 C3.98885722 47.89038901 4.45104852 49.86949138 5 52 C5.21798693 54.60634989 5.39641565 57.19808697 5.53515625 59.80859375 C5.57813339 60.57115982 5.62111053 61.33372589 5.66539001 62.11940002 C5.75546801 63.735664 5.84360209 65.35203733 5.92993164 66.96850586 C6.06037736 69.39796725 6.19864709 71.82688829 6.33789062 74.25585938 C6.83497021 83.18305189 7.13452792 92.05638469 7 101 C6.67 101 6.34 101 6 101 C4.39514593 92.68928188 3.67864488 84.64087645 3.5 76.1875 C3.25164566 67.50703821 2.82540451 58.89502615 2 50.25 C0.42239711 33.52973367 -0.21934967 16.79243554 0 0 Z " transform="translate(56,206)" style="fill: #76ECFA;"/><path d="M0 0 C3 2 3 2 3.73046875 4.00390625 C4.78973997 9.93401434 5.20091153 15.73829856 5.25 21.75 C5.25926514 22.45842041 5.26853027 23.16684082 5.27807617 23.89672852 C5.24999005 28.6058342 4.61600779 32.56166875 3 37 C2.01 37.495 2.01 37.495 1 38 C1.33 34.37 1.66 30.74 2 27 C1.67 28.65 1.34 30.3 1 32 C0.67 32 0.34 32 0 32 C-0.84355274 25.14524794 -1.2839752 18.33669629 -1.5625 11.4375 C-1.60568359 10.42880859 -1.64886719 9.42011719 -1.69335938 8.38085938 C-1.79829618 5.92067425 -1.90045701 3.46040825 -2 1 C-1.34 0.67 -0.68 0.34 0 0 Z " transform="translate(75,361)" style="fill: #4B4B4B;"/><path d="M0 0 C5.28 0 10.56 0 16 0 C16.125 9.75 16.125 9.75 15 12 C7.57142857 12.14285714 7.57142857 12.14285714 4 11 C3.67 8.69 3.34 6.38 3 4 C2.01 3.67 1.02 3.34 0 3 C0 2.01 0 1.02 0 0 Z " transform="translate(80,442)" style="fill: #EE962F;"/><path d="M0 0 C1.65 0 3.3 0 5 0 C4.01 0.33 3.02 0.66 2 1 C2.08378906 1.94101562 2.16757813 2.88203125 2.25390625 3.8515625 C2.35574219 5.09679687 2.45757812 6.34203125 2.5625 7.625 C2.66691406 8.85476563 2.77132812 10.08453125 2.87890625 11.3515625 C2.99191061 14.75627462 2.69045563 17.67558398 2 21 C1.67 21 1.34 21 1 21 C1 19.35 1 17.7 1 16 C-0.2375 16.103125 -1.475 16.20625 -2.75 16.3125 C-6.08766429 16.29474647 -6.77318887 16.18144891 -9.5 14 C-11.49316478 10.01367043 -11.2996041 7.41916048 -11 3 C-8.03 3 -5.06 3 -2 3 C-2 4.65 -2 6.3 -2 8 C-4.64 8 -7.28 8 -10 8 C-10 8.66 -10 9.32 -10 10 C-5.545 9.505 -5.545 9.505 -1 9 C-0.67 6.03 -0.34 3.06 0 0 Z " transform="translate(77,427)" style="fill: #4D4D4D;"/><path d="M0 0 C2 0.8125 2 0.8125 3.08764648 2.31445312 C4.43479039 6.00296702 4.45416794 9.70957023 4.59765625 13.59375 C4.63684677 14.44424927 4.67603729 15.29474854 4.71641541 16.17102051 C4.84028803 18.88454841 4.95211764 21.59839256 5.0625 24.3125 C5.17816791 27.02648752 5.29644407 29.74030751 5.41929626 32.45397949 C5.49513708 34.14103559 5.5665684 35.8282971 5.6330719 37.51574707 C5.78910049 41.08975141 6.10105956 44.36012382 7 47.8125 C8.09361546 57.80355483 8.11728685 67.77795797 8 77.8125 C7.67 77.8125 7.34 77.8125 7 77.8125 C5.31881369 59.90507286 3.73553715 41.99237839 2.3125 24.0625 C2.24606293 23.23345154 2.17962585 22.40440308 2.11117554 21.55023193 C1.9221036 19.18470251 1.73591074 16.81896588 1.55078125 14.453125 C1.49467682 13.75238861 1.43857239 13.05165222 1.38076782 12.3296814 C1.10987535 8.81488809 0.93999631 5.33782321 1 1.8125 C-0.32 1.8125 -1.64 1.8125 -3 1.8125 C-3 10.0625 -3 18.3125 -3 26.8125 C-3.33 26.8125 -3.66 26.8125 -4 26.8125 C-4 18.2325 -4 9.6525 -4 0.8125 C-2 -0.1875 -2 -0.1875 0 0 Z " transform="translate(39,13.1875)" style="fill: #9AF2FB;"/><path d="M0 0 C0.99 0.495 0.99 0.495 2 1 C2.37890625 3.01733398 2.37890625 3.01733398 2.5625 5.74609375 C2.67271484 7.31230469 2.67271484 7.31230469 2.78515625 8.91015625 C2.85605469 10.07417969 2.92695312 11.23820312 3 12.4375 C3.08121094 13.654375 3.16242187 14.87125 3.24609375 16.125 C3.744919 23.91434811 4.14036683 31.70699075 4.5 39.50390625 C4.5419751 40.41055527 4.5839502 41.31720428 4.62719727 42.25132751 C4.833311 46.74197086 5.03103078 51.23275339 5.21484375 55.72436523 C5.62420783 65.32567385 6.28001883 74.85116533 7.33959961 84.40466309 C7.80260385 88.63017906 8.10265349 92.73988016 8 97 C7.01 97.495 7.01 97.495 6 98 C4.35272429 80.81052683 3.30684375 63.61947249 2.4375 46.375 C2.19042327 41.48675023 1.93840956 36.59878918 1.68359375 31.7109375 C1.62940781 30.60583832 1.57522186 29.50073914 1.51939392 28.3621521 C1.43909691 26.82236191 1.43909691 26.82236191 1.35717773 25.25146484 C1.31213608 24.35487152 1.26709442 23.4582782 1.22068787 22.53451538 C0.99679574 19.9632003 0.50804363 17.52811995 0 15 C-0.06774144 12.38518042 -0.09500258 9.80020744 -0.0625 7.1875 C-0.05798828 6.49462891 -0.05347656 5.80175781 -0.04882812 5.08789062 C-0.03713156 3.39188932 -0.01919924 1.69593297 0 0 Z " transform="translate(50,250)" style="fill: #87EEFA;"/><path d="M0 0 C1.5 1 1.5 1 3 3 C3.27345479 5.71846235 3.13491285 8.25677199 3 11 C2.34 11 1.68 11 1 11 C0.67 11.66 0.34 12.32 0 13 C-8.415 13.495 -8.415 13.495 -17 14 C-17 13.34 -17 12.68 -17 12 C-12.05 11.34 -7.1 10.68 -2 10 C-2 8.02 -2 6.04 -2 4 C-6.95 4.66 -11.9 5.32 -17 6 C-17 7.65 -17 9.3 -17 11 C-17.33 11 -17.66 11 -18 11 C-18 8.36 -18 5.72 -18 3 C-4.1369863 -0.06849315 -4.1369863 -0.06849315 0 2 C0 1.34 0 0.68 0 0 Z " transform="translate(72,351)" style="fill: #636869;"/><path d="M0 0 C0.33 0 0.66 0 1 0 C2.42554051 9.65245504 2.42554051 9.65245504 0.875 14.5625 C-1.34081652 17.44306147 -2.56028924 17.94457968 -6 19 C-9.26171875 19.23046875 -9.26171875 19.23046875 -12.6875 19.1875 C-14.39486328 19.17783203 -14.39486328 19.17783203 -16.13671875 19.16796875 C-19 19 -19 19 -21 18 C-21 16.68 -21 15.36 -21 14 C-20.11957031 13.96261719 -19.23914062 13.92523438 -18.33203125 13.88671875 C-16.58986328 13.78810547 -16.58986328 13.78810547 -14.8125 13.6875 C-13.08966797 13.60048828 -13.08966797 13.60048828 -11.33203125 13.51171875 C-7.82463669 12.97306847 -5.94322554 11.89606758 -3 10 C-2.01 10 -1.02 10 0 10 C0 6.7 0 3.4 0 0 Z " transform="translate(76,383)" style="fill: #3D3C3C;"/><path d="M0 0 C0.33 0 0.66 0 1 0 C2.20514375 9.33986409 2.09213655 18.60207216 2 28 C2.66 28 3.32 28 4 28 C4.33 32.95 4.66 37.9 5 43 C2.03 43 -0.94 43 -4 43 C-2.95206337 38.80825346 -2.08236365 37.78407039 1 35 C0.67 34.34 0.34 33.68 0 33 C-0.08649451 30.51900266 -0.11565054 28.06655072 -0.09765625 25.5859375 C-0.0962413 24.85629791 -0.09482635 24.12665833 -0.09336853 23.37490845 C-0.08776531 21.04156415 -0.07521235 18.70831536 -0.0625 16.375 C-0.05748541 14.79427222 -0.05292243 13.21354293 -0.04882812 11.6328125 C-0.03779484 7.75517146 -0.02052811 3.87760193 0 0 Z " transform="translate(63,307)" style="fill: #ABDFE4;"/><path d="M0 0 C0 1.98 0 3.96 0 6 C-5.12919186 8.10428384 -9.5610835 8.21755666 -15 8 C-15 6.02 -15 4.04 -15 2 C-9.75614911 0.2520497 -5.52677733 -0.19392201 0 0 Z " transform="translate(70,355)" style="fill: #939393;"/><path d="M0 0 C0.33 0 0.66 0 1 0 C1.66 8.91 2.32 17.82 3 27 C3.33 23.7 3.66 20.4 4 17 C4.33 17 4.66 17 5 17 C5.65655389 25.68761489 6.16311941 34.28217363 6 43 C5.34 43 4.68 43 4 43 C4 44.98 4 46.96 4 49 C3.67 49 3.34 49 3 49 C2.93941406 48.03578125 2.87882812 47.0715625 2.81640625 46.078125 C2.73261719 44.81484375 2.64882813 43.5515625 2.5625 42.25 C2.48128906 40.99703125 2.40007813 39.7440625 2.31640625 38.453125 C2.07147903 35.78009214 1.66368236 33.56658413 1 31 C-0.14339023 20.6812561 -0.1129324 10.36468431 0 0 Z " transform="translate(43,26)" style="fill: #3AE6FA;"/><path d="M0 0 C0.05416188 1.60379341 0.09286638 3.20811406 0.125 4.8125 C0.14820312 5.70582031 0.17140625 6.59914063 0.1953125 7.51953125 C-0.04707113 10.59780331 -1.35411718 12.19264647 -3.25 14.5625 C-5.61725021 16.50702696 -8.08312535 17.15734732 -11 18 C-10.82369668 12.71090047 -10.82369668 12.71090047 -10 10 C-7 7.75 -7 7.75 -4 6 C-3.04768403 3.87880872 -3.04768403 3.87880872 -3 2 C-3.66 1.67 -4.32 1.34 -5 1 C-1.125 0 -1.125 0 0 0 Z " transform="translate(76,399)" style="fill: #454545;"/><path d="M0 0 C-0.3125 1.875 -0.3125 1.875 -1 4 C-5.42883498 6.95255665 -10.11017304 7.47210044 -15.3671875 6.61328125 C-17.26157163 6.13799982 -19.134007 5.57676147 -21 5 C-21 4.01 -21 3.02 -21 2 C-20.04738281 1.93941406 -19.09476563 1.87882812 -18.11328125 1.81640625 C-16.23189453 1.69072266 -16.23189453 1.69072266 -14.3125 1.5625 C-13.07113281 1.48128906 -11.82976562 1.40007812 -10.55078125 1.31640625 C-7.01542349 1.00137437 -3.53116526 0 0 0 Z " transform="translate(82,467)" style="fill: #252525;"/><path d="M0 0 C1.32 0 2.64 0 4 0 C5.03026944 6.69675136 5.10152799 13.2314676 5 20 C3.68 19.67 2.36 19.34 1 19 C0.15976812 14.64667264 -0.10770995 10.55557481 -0.0625 6.125 C-0.05347656 4.97257812 -0.04445312 3.82015625 -0.03515625 2.6328125 C-0.02355469 1.76398438 -0.01195312 0.89515625 0 0 Z " transform="translate(59,373)" style="fill: #7C7C7C;"/><path d="M0 0 C0.99 0.33 1.98 0.66 3 1 C3 9.25 3 17.5 3 26 C2.34 26 1.68 26 1 26 C0.67 26.66 0.34 27.32 0 28 C-1.18844008 22.38792186 -1.14830682 16.89378547 -1.125 11.1875 C-1.12886719 10.22134766 -1.13273437 9.25519531 -1.13671875 8.25976562 C-1.13542969 7.34259766 -1.13414063 6.42542969 -1.1328125 5.48046875 C-1.13168457 4.64410889 -1.13055664 3.80774902 -1.12939453 2.94604492 C-1 1 -1 1 0 0 Z " transform="translate(50,364)" style="fill: #454545;"/><path d="M0 0 C1.2065625 0.495 1.2065625 0.495 2.4375 1 C9.63130228 3.01931292 15.92487239 2.05821894 23 0 C22.67 1.32 22.34 2.64 22 4 C14.92432451 6.51579573 7.28193568 7.13171419 0 5 C0 3.35 0 1.7 0 0 Z " transform="translate(59,460)" style="fill: #919191;"/><path d="M0 0 C2.29612756 11.52164009 2.29612756 11.52164009 2 17 C3.32 17.33 4.64 17.66 6 18 C5.01 18 4.02 18 3 18 C3 18.99 3 19.98 3 21 C-0.875 20.125 -0.875 20.125 -2 19 C-3.06413353 13.44285821 -3.60863368 7.64275632 -3 2 C-1 0 -1 0 0 0 Z " transform="translate(57,448)" style="fill: #545454;"/><path d="M0 0 C0.99 0 1.98 0 3 0 C3 0.66 3 1.32 3 2 C4.32 2 5.64 2 7 2 C7 7.28 7 12.56 7 18 C5.68 17.67 4.36 17.34 3 17 C1.99890485 13.68929162 1.89643866 10.69915231 1.9375 7.25 C1.94652344 6.26515625 1.95554687 5.2803125 1.96484375 4.265625 C1.97644531 3.51796875 1.98804687 2.7703125 2 2 C1.34 2 0.68 2 0 2 C0 1.34 0 0.68 0 0 Z " transform="translate(65,333)" style="fill: #789EA1;"/><path d="M0 0 C0 3 0 3 -1.5625 4.625 C-6.84743535 7.60624558 -14.02064257 7.65796018 -20 7 C-22.5625 5.6875 -22.5625 5.6875 -24 4 C-24 3.01 -24 2.02 -24 1 C-23.01 1 -22.02 1 -21 1 C-21 1.66 -21 2.32 -21 3 C-13.38543686 3.30503443 -6.64707522 0 0 0 Z " transform="translate(82,447)" style="fill: #C3C4BF;"/><path d="M0 0 C1.58468677 0.45363171 3.16769924 0.91311452 4.75 1.375 C5.63171875 1.63023437 6.5134375 1.88546875 7.421875 2.1484375 C9.76080572 2.9209934 11.83442562 3.83625676 14 5 C14 7.31 14 9.62 14 12 C8.59554616 10.36228672 3.5403539 6.80154982 0.79296875 1.8046875 C0.53128906 1.20914062 0.26960938 0.61359375 0 0 Z " transform="translate(45,433)" style="fill: #F79C31;"/><path d="M0 0 C0.33 0 0.66 0 1 0 C1.21690267 4.09266091 1.41378687 8.18574198 1.59204102 12.28027344 C1.65552913 13.67343971 1.72451436 15.06636665 1.79907227 16.45898438 C1.90519436 18.45892298 1.99001904 20.45995606 2.07421875 22.4609375 C2.13182373 23.66540527 2.18942871 24.86987305 2.2487793 26.11083984 C2.16668213 27.0642627 2.08458496 28.01768555 2 29 C-1.22791555 31.1519437 -2.28400809 31.20086443 -6 31 C-4.6875 29.5 -4.6875 29.5 -3 28 C-2.01 28 -1.02 28 0 28 C-0.16749756 27.43829102 -0.33499512 26.87658203 -0.50756836 26.29785156 C-1.03919752 23.81709118 -1.02484355 21.76395494 -0.87890625 19.234375 C-0.83056641 18.34492188 -0.78222656 17.45546875 -0.73242188 16.5390625 C-0.67634766 15.61867188 -0.62027344 14.69828125 -0.5625 13.75 C-0.48418945 12.34621094 -0.48418945 12.34621094 -0.40429688 10.9140625 C-0.27493175 8.60901113 -0.13997966 6.30442711 0 4 C-0.99 3.67 -1.98 3.34 -3 3 C-2.01 2.67 -1.02 2.34 0 2 C0 1.34 0 0.68 0 0 Z " transform="translate(73,364)" style="fill: #838484;"/><path d="M0 0 C0 0.66 0 1.32 0 2 C-4.46334184 3.72293135 -8.10201231 4.22240791 -12.875 4.125 C-14.02742188 4.10695313 -15.17984375 4.08890625 -16.3671875 4.0703125 C-17.23601563 4.04710937 -18.10484375 4.02390625 -19 4 C-18.67 3.01 -18.34 2.02 -18 1 C-15.93939936 0.63494484 -13.87640368 0.28339285 -11.8125 -0.0625 C-10.66394531 -0.25972656 -9.51539063 -0.45695312 -8.33203125 -0.66015625 C-5.21351634 -0.97822284 -3.00194217 -0.80843264 0 0 Z " transform="translate(73,364)" style="fill: #B7D2D4;"/><path d="M0 0 C3.48923165 1.32350166 6.30057745 3.45054537 9 6 C9 7.32 9 8.64 9 10 C3.95030484 9.55443866 1.52381313 7.44186399 -2 4 C-2 3.01 -2 2.02 -2 1 C-1.34 0.67 -0.68 0.34 0 0 Z " transform="translate(47,399)" style="fill: #160F05;"/><path d="M0 0 C-1 3 -1 3 -3.14453125 4.17578125 C-6.44686985 5.12898706 -9.25390893 5.23056671 -12.6875 5.1875 C-14.39486328 5.17783203 -14.39486328 5.17783203 -16.13671875 5.16796875 C-19 5 -19 5 -21 4 C-21 3.34 -21 2.68 -21 2 C-17.87517892 1.66497499 -14.75011534 1.33226801 -11.625 1 C-10.73554687 0.90460938 -9.84609375 0.80921875 -8.9296875 0.7109375 C-8.07890625 0.62070312 -7.228125 0.53046875 -6.3515625 0.4375 C-5.17327881 0.31181641 -5.17327881 0.31181641 -3.97119141 0.18359375 C-2 0 -2 0 0 0 Z " transform="translate(76,397)" style="fill: #2D2C2B;"/><path d="M0 0 C2.7053871 4.05808065 5 8.04889399 5 13 C-3.68965517 9.62068966 -3.68965517 9.62068966 -5 7 C-1.125 1.125 -1.125 1.125 0 0 Z " transform="translate(51,391)" style="fill: #E89331;"/><path d="M0 0 C1.65 0 3.3 0 5 0 C4.01 0.33 3.02 0.66 2 1 C2.08378906 1.94101562 2.16757813 2.88203125 2.25390625 3.8515625 C2.35574219 5.09679687 2.45757812 6.34203125 2.5625 7.625 C2.66691406 8.85476563 2.77132812 10.08453125 2.87890625 11.3515625 C2.99191061 14.75627462 2.69045563 17.67558398 2 21 C1.67 21 1.34 21 1 21 C1 19.35 1 17.7 1 16 C-0.65 16 -2.3 16 -4 16 C-4 15.34 -4 14.68 -4 14 C-3.01 14 -2.02 14 -1 14 C-0.67 9.38 -0.34 4.76 0 0 Z " transform="translate(77,427)" style="fill: #4E4339;"/><path d="M0 0 C0.33 0 0.66 0 1 0 C1 1.65 1 3.3 1 5 C5.62 5 10.24 5 15 5 C15 3.35 15 1.7 15 0 C15.33 0 15.66 0 16 0 C16.33 1.98 16.66 3.96 17 6 C12.20180597 8.55903682 7.29802777 8.38612745 2 8 C1.01 7.67 0.02 7.34 -1 7 C-0.67 4.69 -0.34 2.38 0 0 Z " transform="translate(62,443)" style="fill: #595958;"/><path d="M0 0 C0.99 0 1.98 0 3 0 C3 4.29 3 8.58 3 13 C1.02 13.99 1.02 13.99 -1 15 C-1.66 13.68 -2.32 12.36 -3 11 C-2.01 11 -1.02 11 0 11 C0 7.37 0 3.74 0 0 Z " transform="translate(83,453)" style="fill: #5E5E5E;"/><path d="M0 0 C0.33 0.99 0.66 1.98 1 3 C2.32 3.33 3.64 3.66 5 4 C4.67 8.29 4.34 12.58 4 17 C3.67 16.34 3.34 15.68 3 15 C2.29875 15.33 1.5975 15.66 0.875 16 C-2.26003116 17.09044562 -4.70563182 17.15322643 -8 17 C-4.31265242 14.54176828 -1.30300029 13.98757384 3 13 C2.814375 12.236875 2.62875 11.47375 2.4375 10.6875 C2 8 2 8 3 5 C2.01 5.33 1.02 5.66 0 6 C0 4.02 0 2.04 0 0 Z " transform="translate(79,442)" style="fill: #6E6D6D;"/><path d="M0 0 C0.33 0 0.66 0 1 0 C2.23223906 11.03514084 3.36520833 21.88143519 3 33 C2.67 33 2.34 33 2 33 C-0.53718993 22.05836843 -0.20392721 11.16266152 0 0 Z " transform="translate(60,274)" style="fill: #A5F3FC;"/><path d="M0 0 C0.66 0 1.32 0 2 0 C2.0544207 2.68777802 2.09387266 5.37443212 2.125 8.0625 C2.14175781 8.81466797 2.15851563 9.56683594 2.17578125 10.34179688 C2.21855271 15.28190022 1.72888692 19.3513495 0 24 C-0.66 24.33 -1.32 24.66 -2 25 C-1.84152588 24.27530518 -1.68305176 23.55061035 -1.51977539 22.80395508 C-1.03901777 20.21048338 -0.80242678 17.7680216 -0.68359375 15.13671875 C-0.64169922 14.25048828 -0.59980469 13.36425781 -0.55664062 12.45117188 C-0.51732422 11.53916016 -0.47800781 10.62714844 -0.4375 9.6875 C-0.37272461 8.29047852 -0.37272461 8.29047852 -0.30664062 6.86523438 C-0.20102775 4.57695546 -0.09892248 2.28857628 0 0 Z " transform="translate(78,374)" style="fill: #EE9632;"/><path d="M0 0 C1.98 0 3.96 0 6 0 C6.33 2.97 6.66 5.94 7 9 C5.35 9 3.7 9 2 9 C0.14223235 5.86501708 -0.20140476 3.62528568 0 0 Z " transform="translate(65,371)" style="fill: #7B7B7B;"/><path d="M0 0 C1.63001953 0.01353516 1.63001953 0.01353516 3.29296875 0.02734375 C4.12441406 0.03894531 4.95585938 0.05054688 5.8125 0.0625 C5.8125 0.7225 5.8125 1.3825 5.8125 2.0625 C1.1925 2.7225 -3.4275 3.3825 -8.1875 4.0625 C-8.1875 5.7125 -8.1875 7.3625 -8.1875 9.0625 C-8.5175 9.0625 -8.8475 9.0625 -9.1875 9.0625 C-9.1875 6.4225 -9.1875 3.7825 -9.1875 1.0625 C-5.90230525 -0.03256492 -3.45086585 -0.03710608 0 0 Z " transform="translate(63.1875,352.9375)" style="fill: #7D7D7D;"/><path d="M0 0 C0 4.29 0 8.58 0 13 C-0.33 13 -0.66 13 -1 13 C-1.33 14.65 -1.66 16.3 -2 18 C-2.33 18 -2.66 18 -3 18 C-3.33 12.39 -3.66 6.78 -4 1 C-2 0 -2 0 0 0 Z " transform="translate(78,375)" style="fill: #75614F;"/><path d="M0 0 C0.33 0 0.66 0 1 0 C1.3125 2.6875 1.3125 2.6875 1 6 C-1.4375 8.6875 -1.4375 8.6875 -4 11 C-4.33 11.99 -4.66 12.98 -5 14 C-2.03 14 0.94 14 4 14 C4 14.33 4 14.66 4 15 C0.37 15 -3.26 15 -7 15 C-6.62011842 9.55503074 -4.87501415 7.68126344 -1 4 C-0.13880866 1.82653432 -0.13880866 1.82653432 0 0 Z " transform="translate(64,336)" style="fill: #85999B;"/><path d="M0 0 C0 3 0 3 -1.546875 4.70703125 C-4.97386335 6.51329422 -7.42986318 6.07658801 -11.25 5.6875 C-12.51328125 5.56761719 -13.7765625 5.44773437 -15.078125 5.32421875 C-16.52445312 5.16373047 -16.52445312 5.16373047 -18 5 C-18 4.67 -18 4.34 -18 4 C-17.09636719 3.87882812 -16.19273438 3.75765625 -15.26171875 3.6328125 C-14.08222656 3.46523438 -12.90273437 3.29765625 -11.6875 3.125 C-10.51574219 2.96257812 -9.34398438 2.80015625 -8.13671875 2.6328125 C-5.01064358 2.00214727 -3.07307985 0 0 0 Z " transform="translate(82,447)" style="fill: #B0B1AD;"/><path d="M0 0 C0.33 0 0.66 0 1 0 C1 1.65 1 3.3 1 5 C1.66 5.33 2.32 5.66 3 6 C2.690625 6.680625 2.38125 7.36125 2.0625 8.0625 C0.86629351 11.36965912 0.40994603 14.51545878 0 18 C-1.5625 16.875 -1.5625 16.875 -3 15 C-2.6875 11.8125 -2.6875 11.8125 -2 9 C-1.67 9 -1.34 9 -1 9 C-0.67 6.03 -0.34 3.06 0 0 Z " transform="translate(76,399)" style="fill: #33312E;"/><path d="M0 0 C0.66 0.33 1.32 0.66 2 1 C2 5.62 2 10.24 2 15 C1.67 15 1.34 15 1 15 C1 12.36 1 9.72 1 7 C0.01 6.67 -0.98 6.34 -2 6 C-2 4.35 -2 2.7 -2 1 C-1.34 0.67 -0.68 0.34 0 0 Z " transform="translate(59,431)" style="fill: #433C36;"/><path d="M0 0 C0.33 0 0.66 0 1 0 C1 1.98 1 3.96 1 6 C2.32 6.33 3.64 6.66 5 7 C4.01 7 3.02 7 2 7 C2 7.99 2 8.98 2 10 C0.68 9.67 -0.64 9.34 -2 9 C-2.33 7.68 -2.66 6.36 -3 5 C-2.34 4.67 -1.68 4.34 -1 4 C-0.34786708 1.97536745 -0.34786708 1.97536745 0 0 Z " transform="translate(58,459)" style="fill: #5F5F5F;"/><path d="M0 0 C0.33 0 0.66 0 1 0 C0.96744792 2.01822917 0.93489583 4.03645833 0.90234375 6.0546875 C0.87350758 8.08185404 0.87350758 8.08185404 2 10 C1.01 10 0.02 10 -1 10 C-1 12.31 -1 14.62 -1 17 C-1.33 17 -1.66 17 -2 17 C-2.33 15.02 -2.66 13.04 -3 11 C-3.99 11.495 -3.99 11.495 -5 12 C-4.67 10.68 -4.34 9.36 -4 8 C-2.68 7.67 -1.36 7.34 0 7 C0 4.69 0 2.38 0 0 Z " transform="translate(59,438)" style="fill: #756658;"/><path d="M0 0 C1.5 1.125 1.5 1.125 3 3 C3.1875 6.1875 3.1875 6.1875 3 9 C2.01 9.33 1.02 9.66 0 10 C-1.125 2.25 -1.125 2.25 0 0 Z " transform="translate(72,351)" style="fill: #68A0A4;"/><path d="M0 0 C0.99 0 1.98 0 3 0 C3 2.97 3 5.94 3 9 C2.01 9.495 2.01 9.495 1 10 C0.67 6.7 0.34 3.4 0 0 Z " transform="translate(83,453)" style="fill: #444544;"/><path d="M0 0 C0.33 0 0.66 0 1 0 C1.08096803 1.45742463 1.13917774 2.91612807 1.1875 4.375 C1.22230469 5.18710937 1.25710937 5.99921875 1.29296875 6.8359375 C1.19628906 7.55007813 1.09960938 8.26421875 1 9 C-2.22791555 11.1519437 -3.28400809 11.20086443 -7 11 C-5.6875 9.5 -5.6875 9.5 -4 8 C-3.01 8 -2.02 8 -1 8 C-0.67 5.36 -0.34 2.72 0 0 Z " transform="translate(74,384)" style="fill: #8A8A8A;"/><path d="M0 0 C0.33 0 0.66 0 1 0 C1.33 3.63 1.66 7.26 2 11 C-2 12 -2 12 -4 11 C-2.68 10.67 -1.36 10.34 0 10 C0 6.7 0 3.4 0 0 Z " transform="translate(76,383)" style="fill: #4D4845;"/><path d="M0 0 C0.33 0 0.66 0 1 0 C1 1.98 1 3.96 1 6 C1.66 6 2.32 6 3 6 C2.67 9.3 2.34 12.6 2 16 C1.67 16 1.34 16 1 16 C-0.12862175 10.63904667 -0.09688221 5.44693314 0 0 Z " transform="translate(66,374)" style="fill: #717171;"/><path d="M0 0 C0.33 0 0.66 0 1 0 C1 1.65 1 3.3 1 5 C4.96 5 8.92 5 13 5 C13 5.33 13 5.66 13 6 C8.38 6.33 3.76 6.66 -1 7 C-0.67 4.69 -0.34 2.38 0 0 Z " transform="translate(62,443)" style="fill: #686867;"/><path d="M0 0 C0.33 0.99 0.66 1.98 1 3 C3.01508358 3.73323796 3.01508358 3.73323796 5 4 C5 6.31 5 8.62 5 11 C3 7.25 3 7.25 3 5 C2.01 5.33 1.02 5.66 0 6 C0 4.02 0 2.04 0 0 Z " transform="translate(79,442)" style="fill: #8B6B4E;"/><path d="M0 0 C1.60156595 4.00391487 0.4087561 7.07031192 -1 11 C-1.99 11.495 -1.99 11.495 -3 12 C-2.25749403 7.91621717 -1.17076699 3.98060777 0 0 Z " transform="translate(79,387)" style="fill: #9E672D;"/><path d="M0 0 C0.99 0 1.98 0 3 0 C3 2.31 3 4.62 3 7 C2.01 6.67 1.02 6.34 0 6 C0 4.02 0 2.04 0 0 Z " transform="translate(68,384)" style="fill: #8E8E8D;"/><path d="M0 0 C0.66 0 1.32 0 2 0 C2.33 2.64 2.66 5.28 3 8 C2.01 8 1.02 8 0 8 C0 5.36 0 2.72 0 0 Z " transform="translate(67,372)" style="fill: #8C8C8C;"/><path d="M0 0 C0 0.66 0 1.32 0 2 C-1.32 2.33 -2.64 2.66 -4 3 C-4 2.34 -4 1.68 -4 1 C-5.98 1 -7.96 1 -10 1 C-10 0.67 -10 0.34 -10 0 C-6.30458414 -0.95024979 -3.69541586 -0.95024979 0 0 Z " transform="translate(73,364)" style="fill: #A4BBBC;"/><path d="M0 0 C0.125 2.875 0.125 2.875 0 6 C-0.66 6.66 -1.32 7.32 -2 8 C-3 7 -3 7 -3.1875 4.5625 C-2.85365854 0 -2.85365854 0 0 0 Z " transform="translate(57,448)" style="fill: #414141;"/><path d="M0 0 C0.99 0 1.98 0 3 0 C3 0.66 3 1.32 3 2 C3.99 2.33 4.98 2.66 6 3 C5.34 3 4.68 3 4 3 C4 3.66 4 4.32 4 5 C2.68 4.34 1.36 3.68 0 3 C0 2.01 0 1.02 0 0 Z " transform="translate(58,448)" style="fill: #B1B2AE;"/></svg>