<svg width="600" height="670" viewBox="0 0 600 670" fill="none" xmlns="http://www.w3.org/2000/svg">
<path d="M508.118 171.019C510.433 213.527 447.681 250.077 430 243.959V328.974C558.67 322.273 594.917 223.273 594.917 160.392C594.917 114.487 505.225 117.885 508.118 171.019Z" fill="#FAA307"/>
<path d="M431.848 243.564C449.529 249.682 512.281 213.132 509.966 170.625C507.073 117.49 594.917 114.13 596.765 159.998C598.669 207.273 566.169 323.773 431.848 328.579" stroke="black" stroke-width="5" stroke-linecap="round"/>
<path d="M389.115 382.671L302.685 409.505C298.993 410.652 296.929 414.574 298.076 418.266L355.599 603.542C356.745 607.234 360.667 609.298 364.36 608.152L451.267 581.169L461.694 577.932C466.607 576.407 468.251 570.281 464.763 566.5L448.887 549.29C448.181 548.525 447.655 547.613 447.346 546.619L397.876 387.281C396.73 383.589 392.807 381.525 389.115 382.671Z" fill="#FAA307"/>
<path d="M160.845 381.583L246.979 409.436C250.72 410.645 252.731 414.698 251.432 418.409L186.576 603.717C185.299 607.366 181.305 609.289 177.656 608.012L91.765 577.951L81.4602 574.344C76.605 572.645 75.1795 566.464 78.8 562.81L95.2797 546.177C96.012 545.437 96.5703 544.544 96.914 543.562L152.084 385.931C153.339 382.344 157.228 380.414 160.845 381.583Z" fill="#FAA307"/>
<path fill-rule="evenodd" clip-rule="evenodd" d="M11.501 395.347C-13.0676 419.915 4.33289 461.924 39.0782 461.924L422.924 461.924C444.463 461.924 461.924 444.463 461.924 422.924L461.924 39.0782C461.924 4.3329 419.915 -13.0676 395.347 11.501L11.501 395.347Z" fill="#FAA307"/>
<path d="M30.9238 378.024L50.7148 397.831M80.4414 328.547L100.232 348.354" stroke="black" stroke-width="5" stroke-linecap="round"/>
<path d="M226.166 182.942L245.957 202.749M275.684 133.465L295.475 153.272" stroke="black" stroke-width="5" stroke-linecap="round"/>
<path d="M128.545 280.483L147.629 299.583M178.062 231.006L197.147 250.106" stroke="black" stroke-width="5" stroke-linecap="round"/>
<path d="M323.785 85.4014L342.869 104.501M373.303 35.9239L392.387 55.0236" stroke="black" stroke-width="5" stroke-linecap="round"/>
<path d="M177.441 160.848C187.594 238.451 235.202 229.406 272 230.883L245.611 312C216.144 308.011 176.443 309.34 141.697 279.199C111.051 252.614 101.43 225.586 93.7576 178.134C84.1801 118.904 168.412 91.8335 177.441 160.848Z" fill="#FAA307"/>
<path d="M406 182V196" stroke="black" stroke-width="14" stroke-linecap="round"/>
<path d="M362 182V196" stroke="black" stroke-width="14" stroke-linecap="round"/>
<path d="M372 462H310" stroke="black" stroke-width="5" stroke-linecap="round"/>
<path d="M461 226L461 316" stroke="black" stroke-width="5" stroke-linecap="round"/>
<path d="M271 230.883C233.997 229.406 186.122 238.451 175.913 160.848C166.833 91.8335 82.1308 118.904 91.7618 178.134C99.4776 225.586 109.152 252.614 139.969 279.199C174.909 309.34 214.831 308.011 244.464 312" stroke="black" stroke-width="5" stroke-linecap="round"/>
<path d="M71 666.934L512 666" stroke="black" stroke-width="5" stroke-linecap="round"/>
<path d="M346.374 233C346.874 235 339.874 271 369.874 270.5C393.874 270.1 398.873 250.333 398.373 240.5" stroke="black" stroke-width="14" stroke-linecap="round"/>
</svg>
