<svg width="510" height="621" viewBox="0 0 510 621" fill="none" xmlns="http://www.w3.org/2000/svg">
<path d="M369.5 410H279C275.134 410 272 413.134 272 417V611C272 614.866 275.134 618 279 618H370H380.918C386.062 618 389.449 612.638 387.239 607.993L377.179 586.849C376.732 585.909 376.5 584.882 376.5 583.841V417C376.5 413.134 373.366 410 369.5 410Z" fill="#FAA307"/>
<path d="M268.667 409.337L178.167 407.171C174.237 407.077 171 410.238 171 414.169V610.5C171 614.366 174.134 617.5 178 617.5H269H279.918C285.062 617.5 288.449 612.138 286.239 607.493L276.179 586.349C275.732 585.409 275.5 584.382 275.5 583.341V416.335C275.5 412.534 272.467 409.427 268.667 409.337Z" fill="#FAA307"/>
<path fill-rule="evenodd" clip-rule="evenodd" d="M11.501 395.347C-13.0676 419.915 4.33289 461.924 39.0782 461.924L422.924 461.924C444.463 461.924 461.924 444.463 461.924 422.924L461.924 39.0782C461.924 4.3329 419.915 -13.0676 395.347 11.501L11.501 395.347Z" fill="#FAA307"/>
<path d="M30.9238 378.024L50.7148 397.831M80.4414 328.547L100.232 348.354" stroke="black" stroke-width="5" stroke-linecap="round"/>
<path d="M226.166 182.942L245.957 202.749M275.684 133.465L295.475 153.272" stroke="black" stroke-width="5" stroke-linecap="round"/>
<path d="M128.545 280.483L147.629 299.583M178.062 231.006L197.147 250.106" stroke="black" stroke-width="5" stroke-linecap="round"/>
<path d="M323.785 85.4014L342.869 104.501M373.303 35.9239L392.387 55.0236" stroke="black" stroke-width="5" stroke-linecap="round"/>
<path d="M338 462H276" stroke="black" stroke-width="5" stroke-linecap="round"/>
<path d="M275.501 462L275.008 581.97C275.003 583.296 275.372 584.593 276.076 585.717C279.673 591.465 291.079 609.737 291.5 611C292 612.5 292.5 613.5 292 616.5" stroke="black" stroke-width="5" stroke-linecap="round"/>
<path d="M66 618L507 617.066" stroke="black" stroke-width="5" stroke-linecap="round"/>
<path d="M405.119 211.138C387.552 212.643 349.733 212.122 338.996 198" stroke="black" stroke-width="16" stroke-linecap="round" stroke-linejoin="round"/>
<path d="M415.754 151V165" stroke="black" stroke-width="14" stroke-linecap="round"/>
<path d="M371.754 151V165" stroke="black" stroke-width="14" stroke-linecap="round"/>
<path d="M140.05 297.458C142.097 289.821 149.946 285.289 157.583 287.335L338.212 335.734C345.849 337.781 350.381 345.631 348.334 353.268L315.682 475.127C313.636 482.764 305.786 487.296 298.149 485.249L117.521 436.85C109.884 434.804 105.352 426.954 107.398 419.317L140.05 297.458Z" fill="#E04D1C"/>
<path d="M311.824 472.24L344.103 351.774C345.919 344.501 344.358 344.857 342.354 342.033L336.178 333.327C334.61 331.117 332.319 329.524 329.702 328.823L151.827 281.161C145.622 279.499 139.244 283.181 137.582 289.386L105.337 409.724C104.556 412.64 104.939 415.745 106.405 418.384L111.099 426.83C112.629 429.585 115.212 431.6 118.255 432.416L297.578 480.465C303.784 482.128 310.162 478.445 311.824 472.24Z" fill="#FBF5E5"/>
<path d="M129.295 278.829C131.341 271.192 139.191 266.66 146.828 268.706L327.456 317.105C335.093 319.152 339.625 327.002 337.579 334.639L304.927 456.498C302.881 464.135 295.031 468.667 287.394 466.62L106.766 418.221C99.1285 416.175 94.5964 408.325 96.6427 400.688L129.295 278.829Z" fill="#FF5B24"/>
<path d="M346.36 341.622L335.952 323.426L335.458 325.27L335.356 333.42L345 350.501L346.36 341.622Z" fill="url(#paint0_linear_2672_8509)"/>
<path d="M246.374 374.339C240.651 359.999 272.843 305.09 289.654 279.429L225.399 239.786C195.162 271.656 155.55 354.162 159.46 384.755C163.291 414.731 192.254 437.301 220.139 429.242C248.024 421.183 253.527 392.265 246.374 374.339Z" fill="#FAA307"/>
<path d="M289.654 279.429C272.843 305.09 240.651 359.999 246.374 374.339C253.527 392.265 248.024 421.183 220.139 429.242C192.254 437.301 163.291 414.731 159.46 384.755C155.55 354.162 195.162 271.656 225.399 239.786" stroke="black" stroke-width="5" stroke-linecap="round"/>
<defs>
<linearGradient id="paint0_linear_2672_8509" x1="333.628" y1="337.285" x2="345.866" y2="345.196" gradientUnits="userSpaceOnUse">
<stop offset="0.139413" stop-color="#FF5B24"/>
<stop offset="1" stop-color="#E04D1C"/>
</linearGradient>
</defs>
</svg>
